<?xml version="1.0" encoding="UTF-8" standalone="no"?>
<svg
   xmlns:dc="http://purl.org/dc/elements/1.1/"
   xmlns:cc="http://creativecommons.org/ns#"
   xmlns:rdf="http://www.w3.org/1999/02/22-rdf-syntax-ns#"
   xmlns:svg="http://www.w3.org/2000/svg"
   xmlns="http://www.w3.org/2000/svg"
   viewBox="0 0 816 816"
   height="816"
   width="816"
   id="svg80"
   version="1.1">
  <metadata
     id="metadata86">
    <rdf:RDF>
      <cc:Work
         rdf:about="">
        <dc:format>image/svg+xml</dc:format>
        <dc:type
           rdf:resource="http://purl.org/dc/dcmitype/StillImage" />
        <dc:title></dc:title>
      </cc:Work>
    </rdf:RDF>
  </metadata>
  <defs
     id="defs84">
    <clipPath
       id="clipPath131"
       clipPathUnits="userSpaceOnUse">
      <rect
         y="108.56627"
         x="173.87347"
         height="486.6506"
         width="446.09637"
         id="rect133"
         style="fill:#000000;fill-opacity:0.1871658" />
    </clipPath>
  </defs>
  <g
     clip-path="url(#clipPath131)"
     transform="translate(-10.427692,6.9517966)"
     id="g90">
    <path
       id="secondary"
       d="m 0,725.90476 c 0,-79.64524 0.23999825,-90.33524 2.0691592,-92.1644 1.6271452,-1.62715 3.7359295,-1.88059 9.8716598,-1.1864 5.411061,0.61219 7.959785,0.41089 8.315669,-0.65676 0.386307,-1.15892 6.103956,-1.18237 23.128341,-0.0949 C 55.823173,632.59687 76.8,633.32595 90,633.42248 c 36.77546,0.26896 38,0.20164 38,-2.08915 0,-1.1 -0.6,-2 -1.33333,-2 -0.73334,0 -1.33334,-3 -1.33334,-6.66666 0,-4.55084 0.54528,-6.66667 1.71808,-6.66667 0.94494,0 4.07181,-1.2 6.94859,-2.66667 2.87679,-1.46666 6.53464,-2.66666 8.12857,-2.66666 1.61996,0 3.8613,-1.47007 5.08215,-3.33334 88.88033,33.86462 176.95891,-3.92315 240.22353,4.64659 1.52216,0.0107 4.07216,1.40875 5.66667,3.10601 2.33149,2.48178 2.89908,4.70062 2.89908,11.33334 v 8.2474 h 9.33333 c 8.44444,0 9.33334,-0.25398 9.33334,-2.66667 0,-1.46667 0.6,-2.66667 1.33333,-2.66667 0.73333,0 1.34292,-0.75 1.35463,-1.66666 0.012,-0.91667 1.66172,-3.51948 3.66666,-5.78404 3.23031,-3.64856 4.73664,-4.21806 13.22956,-5.00164 5.27131,-0.48635 11.1257,-1.47035 13.00975,-2.18667 1.88405,-0.71632 6.55839,-1.58709 10.3874,-1.93504 3.89189,-0.35368 7.58493,-1.48476 8.37481,-2.565 0.89418,-1.22284 2.73823,-1.679 5.02235,-1.24237 1.98515,0.37949 8.28353,0.007 13.9964,-0.8288 6.3376,-0.92668 29.08147,-1.49383 58.3394,-1.45475 55.63095,0.0743 66.54761,1.11468 106.61904,10.16101 13.86979,3.13118 13.79871,3.10259 14.68832,5.9055 0.45607,1.43697 2.01911,2.59846 3.49677,2.59846 1.46963,0 3.57206,0.9 4.67206,2 2.26788,2.26788 5.80952,2.67431 5.80952,0.66667 0,-0.73333 1.5,-1.33333 3.33333,-1.33333 2.66667,0 3.33333,0.66666 3.33333,3.33333 0,2.73764 -0.65525,3.34057 -3.66666,3.37388 -3.36211,0.0372 -3.45214,0.16503 -1.08396,1.53915 1.77245,1.02845 22.87301,1.69436 67.25836,2.12257 50.78716,0.48999 65.04965,0.99797 66.41729,2.36561 1.39788,1.3979 1.74164,18.99791 1.74164,89.17022 V 816 H 408 0 Z M 517.02752,579.93987 c -9.66284,-2.37564 -20.36884,-7.02839 -25.09879,-10.90775 -1.1392,-0.93433 -7.05007,-3.87583 -9.38025,-7.28769 -6.06248,-8.87665 -10.6732,-13.84844 -37.56096,-23.6591 C 432.83423,533.65092 426.27049,523.82487 426.22671,510 c -0.0319,-10.04664 -1.64828,-18.3202 8.14243,-39.02008 13.84553,-29.27279 20.84045,-47.72843 20.78771,-96.31325 -0.0348,-32.12042 -1.29746,-50.48016 -5.96006,-86.66667 -4.37019,-33.91712 -4.857,-39.07624 -7.33258,-77.70824 l -2.37366,-37.04157 2.74444,-2.74443 c 2.46784,-2.46784 4.8788,-2.81845 23.92138,-3.47876 36.91552,-1.28005 67.83386,3.64767 89.17696,14.21292 14.22442,7.04135 19.33334,11.81407 19.33334,18.06108 0,2.63156 -0.93646,7.01537 -2.081,9.74183 -2.4288,5.78565 -3.82556,11.62036 -18.10359,75.62384 -25.29248,113.3776 -28.99336,136.83389 -25.30227,160.36688 1.5016,9.57366 12.85546,39.60428 21.72243,57.45518 5.06797,10.20279 9.50659,13.70527 29.76443,23.48692 18.43933,8.90359 21.01157,11.5098 21.60945,21.89483 0.41161,7.14956 0.066,8.34584 -3.91231,13.54281 -5.47116,7.14706 -16.69849,13.37199 -32.17964,17.84182 -14.80393,4.2743 -33.49713,4.5347 -49.15665,0.68476 z m -309.02684,-25.4378 c -6.29056,-2.50839 -9.33439,-6.55458 -9.32903,-12.40115 0.007,-7.37303 3.67115,-12.84892 12.91016,-19.29232 27.24643,-19.00201 42.92042,-31.70583 50.80799,-41.18004 2.88255,-3.46237 14.82553,-20.72368 26.53997,-38.35847 19.0353,-28.65548 21.59992,-33.1902 24.13032,-42.66666 7.40874,-27.74618 7.63764,-50.12223 0.9011,-88.08584 -6.05867,-34.14344 -16.57619,-88.18134 -24.18415,-124.25544 -6.97356,-33.06603 -6.94291,-33.28282 5.21911,-36.91482 12.55904,-3.75057 46.1586,-7.43712 75.00385,-8.22944 40.19479,-1.10408 50.17717,1.29651 51.09677,12.28782 0.23656,2.82742 -0.2133,7.56782 -0.99969,10.53421 -1.57311,5.93393 -4.55613,32.19229 -10.68551,94.06008 -10.80754,109.08785 -10.80572,126.78012 0.0165,160.05355 3.04085,9.34925 4.29482,16.15346 4.84594,26.29472 1.21652,22.38553 -2.19146,27.86964 -22.54084,36.27242 -18.27725,7.54716 -25.90338,15.05867 -37.51362,36.94979 -3.54591,6.6858 -8.30471,14.05603 -10.57514,16.37827 -8.6447,8.84201 -22.85317,14.8231 -42.97776,18.09158 -14.13764,2.29612 -87.15328,2.65995 -92.66598,0.46174 z M 37.6,95.733333 c -2.200623,-2.200622 -2.200623,-30.599377 0,-32.8 2.200623,-2.200622 30.599377,-2.200622 32.8,0 2.200623,2.200623 2.200623,30.599378 0,32.8 -2.200623,2.200623 -30.599377,2.200623 -32.8,0 z M 67.713311,79.666667 67.333333,66 H 54 40.666667 L 40.286689,79.666667 39.906712,93.333333 H 54 68.093288 Z m 18.184394,-19 c 0.0011,-15.4 0.19518,-21.51739 0.431315,-13.594199 0.236133,7.923191 0.235244,20.523191 -0.002,28 -0.237203,7.476809 -0.430403,0.994199 -0.429315,-14.405801 z m 642.666665,0 c 10e-4,-15.4 0.19518,-21.51739 0.43131,-13.594199 0.23615,7.923191 0.23525,20.523191 -10e-4,28 -0.23787,7.476809 -0.43107,0.994199 -0.42998,-14.405801 z M 97.547773,69.01444 C 96.696497,68.163164 96,63.707777 96,59.113579 96,52.507656 96.488049,50.507644 98.333333,49.551651 99.616667,48.886788 106.66667,48.415679 114,48.504739 L 127.33333,48.666667 127.45779,54 c 0.20963,8.983296 0.2866,9.205317 2.5422,7.333333 1.1,-0.912918 2,-3.665276 2,-6.116348 0,-5.682708 2.2338,-6.84134 13.48315,-6.993456 11.69605,-0.158157 12.85329,0.916114 13.40416,12.443138 L 159.33333,70 129.21443,70.281107 C 107.79469,70.481021 98.648501,70.115175 97.547767,69.01444 Z m 9.118897,-9.681107 c 0,-1.1 -0.9,-2 -2,-2 -1.1,0 -2,0.9 -2,2 0,1.1 0.9,2 2,2 1.1,0 2,-0.9 2,-2 z M 163.83333,70 c -0.89952,-3.598071 -0.27448,-20.223751 0.78872,-20.979583 3.1938,-2.270477 9.85895,-1.010396 12.51482,2.365992 l 2.66376,3.386411 0.43301,-3.053077 c 0.49063,-3.459182 5.43127,-4.877651 8.40193,-2.412214 1.36844,1.135708 2.51326,1.080618 4.5979,-0.221254 4.70441,-2.937958 7.522,0.0075 6.98785,7.305 -0.41591,5.682188 -0.25353,6.034165 2.45657,5.325453 2.59928,-0.679725 2.81171,-1.360405 2.03695,-6.526888 -1.11783,-7.454179 -1.44247,-7.380997 30.61849,-6.901809 l 25.33334,0.378636 0.4401,3.855324 c 0.24434,2.140422 -0.32134,4.32592 -1.27172,4.913285 -1.39158,0.860048 -1.38696,1.664965 0.0248,4.30276 3.00507,5.615008 1.51932,8.208941 -4.96984,8.676776 -3.16453,0.228147 -6.50364,-0.207577 -7.42022,-0.968275 -1.15319,-0.957062 -2.10222,-0.947388 -3.08102,0.03141 -0.77797,0.777973 -2.83369,1.213697 -4.56826,0.968276 -2.74062,-0.38776 -3.2071,-1.276054 -3.56023,-6.77956 -0.37076,-5.778006 -0.70191,-6.333334 -3.77668,-6.333334 -3.19404,0 -3.34711,0.331216 -2.92695,6.333334 0.40271,5.752749 0.1616,6.373273 -2.63004,6.769018 -1.69037,0.239627 -3.83464,-0.196097 -4.76506,-0.968276 -1.13136,-0.938944 -2.1347,-0.96093 -3.02924,-0.06637 -0.81232,0.812319 -9.41298,1.192556 -21.90162,0.968275 C 177.04804,70.006849 176.65876,69.944363 176.2406,67 175.67581,63.023259 173.57593,63.18832 172,67.333333 c -0.88995,2.340739 -2.26975,3.333334 -4.63367,3.333334 -1.85148,0 -3.44133,-0.3 -3.533,-0.666667 z m 56.99116,-12.286615 c -0.39021,-0.390218 -1.65628,-0.34617 -2.81346,0.09788 -1.88334,0.722704 -1.8544,1.190646 0.27584,4.462184 l 2.3798,3.654812 0.43365,-3.752694 c 0.23852,-2.063983 0.1144,-4.071966 -0.27583,-4.462184 z m 25.84218,3.619948 c 0,-2.2 -0.6,-4 -1.33334,-4 -0.73333,0 -1.33333,1.8 -1.33333,4 0,2.2 0.6,4 1.33333,4 0.73334,0 1.33334,-1.8 1.33334,-4 z m -55.11696,-7 C 191.17983,53.416667 190.87719,54.166667 190.87719,56 c 0,1.833333 0.30264,2.583333 0.67252,1.666667 0.36988,-0.916667 0.36988,-2.416667 0,-3.333334 z m 402.77582,14 c -0.27417,-0.55 -0.45958,-5.5 -0.41202,-11 l 0.0865,-10 28.23516,-0.359564 c 27.53317,-0.350625 28.25692,-0.290992 29.11057,2.398618 0.51348,1.617848 0.0232,4.05876 -1.18578,5.903954 -1.80534,2.755296 -1.81906,3.346718 -0.11054,4.764642 2.48175,2.059666 2.50532,5.838794 0.0492,7.877236 -1.0458,0.86794 -4.4958,1.391406 -7.66666,1.16326 -4.81143,-0.346179 -5.83582,-0.911186 -6.19139,-3.414812 -0.45825,-3.226646 -2.90727,-4.206547 -2.90727,-1.16326 0,3.557416 -3.88872,5.456565 -7.99737,3.905718 -2.43579,-0.919402 -4.2428,-0.968948 -5.07267,-0.139084 -0.70898,0.708986 -2.70826,1.088267 -4.44284,0.842846 -2.7334,-0.38674 -3.17022,-1.209131 -3.27717,-6.169602 -0.0679,-3.14786 -0.89519,-6.44786 -1.83852,-7.333333 -1.38956,-1.304331 -1.57045,-0.302651 -0.95287,5.276656 0.60142,5.433384 0.33331,7.051217 -1.27052,7.666667 -2.93326,1.1256 -13.56744,0.960374 -14.15584,-0.219942 z M 623.97959,58.254644 C 623.96405,55.017215 623.65015,54.478167 622.66667,56 c -1.70891,2.644345 -1.70891,8.389496 0,7.333333 0.73333,-0.453225 1.32414,-2.738634 1.31292,-5.078689 z m 31.70157,9.548303 c -2.26076,-1.397231 -2.63329,-16.660343 -0.45968,-18.833956 2.57547,-2.57546 59.75619,-3.19063 61.72719,-0.66408 0.72729,0.932298 1.40273,5.428604 1.50097,9.991788 0.14919,6.929474 -0.24369,8.522712 -2.38408,9.668217 -2.81347,1.505721 -57.9252,1.357896 -60.3844,-0.161969 z m 34.98551,-9.647439 c 0,-1.014469 -1.2,-2.158299 -2.66667,-2.54184 -1.97799,-0.517256 -2.66667,-0.04091 -2.66667,1.844492 0,1.652951 0.93255,2.54184 2.66667,2.54184 1.46667,0 2.66667,-0.830021 2.66667,-1.844492 z m 13.57777,-1.111064 c -0.95675,-0.956749 -1.57777,-1.035472 -1.57777,-0.2 0,1.779708 1.57681,3.356521 2.46666,2.466667 0.3789,-0.378888 -0.0211,-1.398888 -0.88889,-2.266667 z M 35.592451,48.48134 C 33.919559,46.808448 34.527829,15.338837 36.266667,13.6 c 2.415624,-2.415625 32.246792,-2.194457 34.278949,0.254143 1.028193,1.238898 1.414189,7.322301 1.16326,18.333333 L 71.333333,48.666667 53.925784,49.036896 C 44.351633,49.240521 36.101633,48.990523 35.592451,48.48134 Z"
       style="fill:black;stroke-width:1" />
    <path
       id="primary"
       d="m 450.28908,754.64522 c -1.17927,-1.9081 0.56092,-3.48663 5.0718,-4.6007 2.69304,-0.66509 3.66666,-0.4069 3.66666,0.97232 0,4.16955 -6.68778,6.94644 -8.73846,3.62838 z m 23.88616,-0.55348 c -1.00328,-2.61448 0.63181,-9.0289 2.62468,-10.29658 0.85853,-0.54612 2.61096,-1.00213 3.89429,-1.01336 2.69488,-0.0236 3.26628,6.41167 0.95309,10.73391 -1.63636,3.05756 -6.3795,3.42321 -7.47206,0.57603 z m 34.93164,0.79801 c -0.46144,-0.74661 -0.7326,-5.22404 -0.60259,-9.94983 0.21424,-7.78713 -0.28121,-9.53545 -5.28685,-18.65597 -3.03778,-5.53499 -5.52323,-10.39188 -5.52323,-10.79309 0,-0.4012 1.49487,-0.72947 3.32193,-0.72947 2.63604,0 4.17647,1.51415 7.46059,7.33329 2.27627,4.03331 4.6654,7.65884 5.30921,8.05674 1.26976,0.78476 2.97071,-1.01223 9.20371,-9.72336 2.56271,-3.5816 5.08524,-5.66667 6.85557,-5.66667 3.62511,0 2.98792,1.55836 -5.29166,12.94177 -5.8332,8.01992 -6.75088,10.20327 -7.73867,18.4119 -0.97483,8.10097 -1.49473,9.3663 -3.99487,9.72258 -1.5808,0.22527 -3.25172,-0.20129 -3.71314,-0.94789 z m 35.92982,-0.1136 c -0.50002,-0.80907 -0.2049,-8.90775 0.65583,-17.99708 0.86073,-9.08932 1.1728,-17.76168 0.69348,-19.27189 -0.83393,-2.62744 -0.37537,-2.74579 10.63933,-2.74579 16.03059,0 19.27978,1.94263 19.31512,11.54815 0.0277,7.52417 -5.51392,12.45185 -14.0032,12.45185 -6.67444,0 -7.48353,0.86908 -9.30972,10 -1.05936,5.29683 -1.9239,6.75083 -4.20752,7.07625 -1.5808,0.22527 -3.28329,-0.25238 -3.78332,-1.06144 z m 22.77648,-22.78021 c 2.2984,-1.90751 2.46774,-8.11456 0.28103,-10.30127 -2.40501,-2.40501 -11.28056,-2.03641 -12.25735,0.50905 -1.13354,2.95396 -1.0102,10.57772 0.19068,11.78595 1.33156,1.33971 9.41722,-0.0281 11.78564,-1.99373 z m 17.02675,22.09062 c -0.44361,-1.15606 -0.1132,-9.47677 0.73428,-18.49046 0.84748,-9.01371 1.15697,-17.38895 0.68779,-18.61166 -0.76463,-1.99258 0.6744,-2.2231 13.87753,-2.2231 8.10185,0 15.05944,0.53201 15.46131,1.18225 1.44769,2.3424 -2.83571,4.01669 -11.2911,4.41347 l -8.61553,0.40433 -0.43224,4.52685 c -0.53928,5.64778 1.11571,6.75987 10.09891,6.78607 5.32425,0.0155 7,0.4992 7,2.02041 0,1.52663 -1.67539,2 -7.0785,2 -9.37992,0 -11.90486,1.9395 -11.35202,8.71984 l 0.43052,5.28016 9.75285,0.39348 c 8.35343,0.33703 9.6904,0.71967 9.31769,2.66667 -0.63169,3.29992 -27.34864,4.17056 -28.59149,0.93175 z M 257.69421,738.09472 c 0,-2.93365 0.64195,-4.66666 1.72863,-4.66666 1.05102,0 1.64106,1.43728 1.50525,3.66666 -0.32536,5.3413 -0.43449,5.66667 -1.90055,5.66667 -0.73333,0 -1.33333,-2.1 -1.33333,-4.66667 z m 13.33333,0.16326 c 0,-3.40438 0.5903,-4.82992 2,-4.82992 1.1,0 2.01908,1.05 2.0424,2.33333 0.0404,2.22223 0.1268,2.22223 1.81367,0 2.55111,-3.36067 3.47727,-2.89283 3.47727,1.75652 0,3.51503 -0.38379,3.96804 -2.73066,3.22317 -1.50185,-0.47666 -3.60185,-0.14364 -4.66666,0.74008 -1.63187,1.35432 -1.93602,0.84796 -1.93602,-3.22318 z m 15.55556,3.61452 c -1.21889,-1.21888 -1.12677,-7.11183 0.11107,-7.10807 0.55,0.001 1.06389,1.80167 1.14197,4 0.15291,4.30481 0.0928,4.45395 -1.25308,3.10807 z m 7.55555,-3.16976 c 0,-2.16774 0.5,-3.94135 1.11112,-3.94135 0.61111,0 1.11111,1.46459 1.11111,3.25464 0,1.79005 -0.5,3.56367 -1.11111,3.94135 -0.61112,0.37769 -1.11112,-1.0869 -1.11112,-3.25464 z m 7.55556,-0.3223 c 0,-5.46276 1.91015,-6.65597 3.13811,-1.96028 0.46704,1.78596 -0.008,3.78231 -1.17783,4.95238 -1.72481,1.72481 -1.96028,1.36541 -1.96028,-2.9921 z m 12.92467,0.71428 c -0.795,-4.05128 0.97528,-6.98909 2.97276,-4.93333 1.38236,1.42268 0.3552,8.6 -1.23076,8.6 -0.56236,0 -1.34626,-1.65 -1.742,-3.66667 z m 13.742,-0.83674 c 0,-5.36483 0.8414,-5.96892 3.47726,-2.49659 1.68691,2.22223 1.77328,2.22223 1.81367,0 0.0233,-1.28333 0.9424,-2.33333 2.0424,-2.33333 2.21283,0 2.34347,0.58166 1.13989,5.07541 -0.54301,2.02747 -1.50305,2.81471 -2.81745,2.31032 -1.09657,-0.42079 -2.81772,-0.0812 -3.82477,0.75452 -1.49514,1.24085 -1.831,0.63364 -1.831,-3.31033 z m 17.33333,2.16801 c 0,-1.52891 -0.36419,-3.72891 -0.80932,-4.88888 -0.52781,-1.37547 -0.0756,-2.10905 1.3,-2.10905 1.66005,0 1.93364,0.92296 1.28447,4.33333 -1.00175,5.26267 -1.77515,6.42357 -1.77515,2.6646 z m 13.40788,-0.84952 c -1.7016,-4.42084 -1.31576,-5.2048 2.25879,-4.58948 2.3105,0.39772 2.39826,0.83415 0.893,4.44107 l -1.6693,4 z m 17.77084,1.2628 c -0.40567,-1.05716 -0.50259,-3.00716 -0.21539,-4.33333 0.32608,-1.50562 0.78247,-0.78371 1.21518,1.92212 0.72613,4.54068 0.25416,5.67894 -0.99979,2.41121 z m 7.57819,-2.01121 c -0.0688,-3.50635 0.27981,-4.22995 1.46625,-3.04351 1.15087,1.15087 1.17439,2.34965 0.0903,4.6 -1.377,2.85824 -1.47175,2.76349 -1.5565,-1.55649 z m 6.61882,-0.4 c -0.0303,-3.5744 0.52784,-5 1.9576,-5 2.555,0 2.57823,4.05917 0.0424,7.41182 -1.83449,2.42543 -1.96025,2.27378 -2,-2.41182 z m -126.70906,-2.33334 c 0,-2.48889 0.35556,-2.84444 1.6,-1.6 1.24444,1.24444 1.24444,1.95556 0,3.2 -1.24444,1.24444 -1.6,0.8889 -1.6,-1.6 z m 42.66666,0 c 0,-1.71852 0.67522,-2.66381 1.66667,-2.33333 0.91667,0.30556 1.66667,1.35556 1.66667,2.33333 0,0.97778 -0.75,2.02778 -1.66667,2.33334 -0.99145,0.33048 -1.66667,-0.61482 -1.66667,-2.33334 z m 145.33334,-13.33333 c 0,-7.96432 0.0175,-8 3.9213,-8 5.11084,0 5.83224,1.43077 4.73691,9.39479 -0.85195,6.19444 -1.14941,6.60521 -4.78333,6.60521 -3.84708,0 -3.87488,-0.0574 -3.87488,-8 z m 23.78509,-0.003 -0.45176,-8.00242 4.25464,0.003 c 2.34005,10e-4 4.57203,0.51596 4.95995,1.14362 0.3879,0.62765 0.33974,4.22765 -0.10707,8 -0.75931,6.41121 -1.05351,6.85881 -4.50817,6.85881 -3.5782,0 -3.71023,-0.25473 -4.14762,-8.00243 z m 40.88157,-142.81852 c -11.11637,-1.98364 -18.36198,-4.11657 -24.75041,-7.28592 -11.67089,-5.79002 -10.76436,-6.55318 7.86527,-6.6213 20.71085,-0.0757 28.88105,-2.68603 37.4274,-11.95771 6.09272,-6.60984 6.39518,-7.54269 3.28297,-10.1256 -1.19613,-0.99269 -5.70591,-6.44359 -10.02172,-12.11308 -4.39181,-5.76932 -8.57124,-10.02463 -9.49189,-9.66421 -0.90472,0.35418 -3.84342,4.19052 -6.53044,8.52518 -8.62808,13.9187 -22.7356,21.04799 -39.05743,19.73783 -6.51811,-0.52321 -17.39764,-4.28933 -20.55783,-7.11643 -0.27541,-0.24637 2.86787,-3.52669 6.98508,-7.28958 5.5684,-5.08922 9.02651,-9.91928 13.50075,-18.85702 3.30821,-6.60845 6.01492,-13.0495 6.01492,-14.31345 0,-1.26395 -2.76908,-5.85295 -6.15352,-10.1978 -3.38443,-4.34484 -9.75148,-12.99972 -14.149,-19.23305 -9.32039,-13.21135 -12.30265,-15.92988 -17.51965,-15.97035 -3.33408,-0.0259 -3.70842,-0.41276 -2.93134,-3.02965 10.83316,-36.48198 8.02375,-101.27327 -2.3465,-174.56073 -2.38133,-16.82904 -0.5635,-28.38075 -4.76842,-85.10594 -0.64876,-8.75181 -0.63329,-16.30003 0.036,-17.58549 1.78899,-3.43582 6.42052,-14.62422 36.03238,-13.7989 37.83456,1.0545 78.27936,5.76539 96.66468,17.94332 8.25195,5.46587 10.64767,18.07483 7.85415,25.60314 -3.28644,8.8567 -6.76412,21.99686 -19.9616,80.92227 -20.52412,91.63813 -22.98027,105.46684 -23.77121,125.80321 -0.41678,10.7163 -3.78755,18.77937 -2.90589,23.54217 0.8145,4.4 6.10796,23.9253 11.76324,38.13254 11.99686,30.13858 16.981,39.05207 32.49468,47.20428 16.45164,8.64509 21.44109,28.49172 21.44109,38.83748 0,9.36303 -13.58323,17.07781 -35.31495,22.89996 -12.78285,3.42465 -29.15446,-2.18809 -41.13083,-4.32517 z m -240.2254,-29.3889 c 1.08532,-4.15023 -2.05041,-10.65938 -7.25997,-15.07023 -9.20951,-7.79755 -26.64279,-13.45093 -48.30712,-15.66536 -3.64836,-0.37292 -6.2547,-1.21502 1.41114,-6.60391 4.3828,-3.081 14.46683,-10.88823 20.90696,-16.9739 10.07736,-9.52272 16.52902,-15.07508 36.80487,-45.52946 25.28128,-37.97254 26.76896,-41.14573 30.60515,-65.28038 2.01309,-12.665 1.69092,-40.10252 -0.64192,-54.66667 -2.99341,-18.68827 -17.02005,-91.43168 -25.56141,-132.56371 l -7.45427,-35.89704 0.37294,-7.82233 c 4.88663,-3.95696 35.76045,-10.87348 73.92333,-13.1254 17.35097,-1.02384 59.52892,-1.3224 64.13959,1.69862 3.67513,2.40805 9.25877,7.56986 4.61353,45.25203 -3.84574,31.19665 -12.90945,118.91031 -14.878,145.9519 -2.12444,29.18337 -4.73322,50.85404 -0.93284,65.02853 l 5.39795,20.13304 -20.87489,14.48696 c -10.98269,7.62188 -4.88725,12.83777 -4.06722,26.41716 0.8774,14.52931 2.06139,26.73087 -2.41857,27.59363 -1.62635,0.31321 -4.86726,-7.77967 -5.58201,-12.08056 -1.63764,-9.8542 -5.97956,-15.7395 -11.61192,-15.7395 -2.9604,0 -24.03545,31.9939 -23.21474,35.24216 0.38324,1.51682 14.32782,18.09119 15.21687,21.06085 1.58123,5.2817 -1.61522,2.61512 -8.7681,15.53742 -8.0994,14.6323 -20.79258,17.58251 -34.71004,22.7897 -9.09485,3.40281 -26.62471,3.61887 -33.12659,3.61887 -4.19382,0 -4.64902,-5.24445 -3.98272,-7.79242 z m 90.8383,-388.50732 c 23.72661,-2.79848 31.3871,-4.41632 31.3871,-6.62875 0,-2.99432 -10.7126,-3.77491 -39.30412,-2.86392 -25.8028,0.82212 -48.48465,3.067 -63.02921,6.23816 -6.68965,1.45856 -8.0708,2.45668 -6.11111,4.41636 1.77404,1.77404 59.55166,0.90288 77.05734,-1.16185 z M 171.69421,64.094725 c 0.45323,-0.733333 1.08864,-1.333333 1.41203,-1.333333 0.32338,0 0.58797,0.6 0.58797,1.333333 0,0.733334 -0.63541,1.333334 -1.41203,1.333334 -0.77661,0 -1.0412,-0.6 -0.58797,-1.333334 z m 512.90224,-3.403761 c 0.60303,-2.896151 2.96936,-3.073363 3.5106,-0.262905 0.28107,1.45947 -0.37289,2.333333 -1.74617,2.333333 -1.28098,0 -2.01596,-0.862449 -1.76443,-2.070428 z m -78.90224,-1.341595 c 0,-1.143278 0.60979,-1.70182 1.35508,-1.241202 0.74529,0.460618 1.00989,1.396028 0.58797,2.078689 -1.14297,1.849392 -1.94305,1.504548 -1.94305,-0.837487 z M 173.26206,58.22508 c -0.75282,-1.961832 0.10904,-3.463688 1.98771,-3.463688 0.61111,0 1.11111,1.2 1.11111,2.666667 0,3.057226 -2.03103,3.579612 -3.09882,0.797021 z m 38.76548,-3.013396 c 0.91667,-0.369883 2.41667,-0.369883 3.33334,0 0.91666,0.369884 0.16666,0.672515 -1.66667,0.672515 -1.83333,0 -2.58333,-0.302631 -1.66667,-0.672515 z m 14.66667,0 c 0.91667,-0.369883 2.41667,-0.369883 3.33333,0 0.91667,0.369884 0.16667,0.672515 -1.66666,0.672515 -1.83334,0 -2.58334,-0.302631 -1.66667,-0.672515 z M 28.36088,33.428059 V 18.761392 H 43.02755 57.69421 V 33.428059 48.094725 H 43.02755 28.36088 Z"
       style="fill:black;stroke-width:1" />
  </g>
</svg>
