<?xml version="1.0" encoding="UTF-8" standalone="no"?>
<svg
   xmlns:dc="http://purl.org/dc/elements/1.1/"
   xmlns:cc="http://creativecommons.org/ns#"
   xmlns:rdf="http://www.w3.org/1999/02/22-rdf-syntax-ns#"
   xmlns:svg="http://www.w3.org/2000/svg"
   xmlns="http://www.w3.org/2000/svg"
   viewBox="130 130 650 650"
   height="500"
   width="500"
   id="svg672"
   version="1.1">
  <metadata
     id="metadata678">
    <rdf:RDF>
      <cc:Work
         rdf:about="">
        <dc:format>image/svg+xml</dc:format>
        <dc:type
           rdf:resource="http://purl.org/dc/dcmitype/StillImage" />
        <dc:title></dc:title>
      </cc:Work>
    </rdf:RDF>
  </metadata>
  <defs
     id="defs676">
    <clipPath
       id="clipPath702"
       clipPathUnits="userSpaceOnUse">
      <rect
         y="143.71184"
         x="183.71359"
         height="455.34268"
         width="470.98422"
         id="rect704"
         style="fill:#000000;fill-opacity:0.1871658" />
    </clipPath>
  </defs>
  <g
     clip-path="url(#clipPath702)"
     transform="translate(-1.2289218,4.915663)"
     id="g682">
    <path
       id="secondaryColor"
       d="m 1.7624129e-7,730.82042 c 0,-79.64524 0.23999825375871,-90.33524 2.06915922375871,-92.1644 1.6271452,-1.62714 3.7359294,-1.88058 9.8716596,-1.1864 5.411061,0.61219 7.959785,0.4109 8.315669,-0.65676 0.386307,-1.15892 6.103956,-1.18237 23.128342,-0.0949 12.438344,0.7946 33.41517,1.52368 46.61517,1.62021 36.77546,0.26896 38,0.20164 38,-2.08914 0,-1.1 -0.6,-2 -1.33333,-2 -0.73334,0 -1.33334,-3 -1.33334,-6.66667 0,-4.55084 0.54528,-6.66667 1.71808,-6.66667 0.94494,0 4.07181,-1.2 6.94859,-2.66666 2.87679,-1.46667 6.53464,-2.66667 8.12857,-2.66667 1.61996,0 3.8613,-1.47007 5.08215,-3.33333 1.20125,-1.83334 3.07025,-3.33334 4.15335,-3.33334 1.19896,0 1.96926,-1.27309 1.96926,-3.25464 0,-3.74441 2.47703,-5.87625 3.98767,-3.43197 0.81403,1.31712 1.13545,1.31727 1.57429,7.5e-4 54.32445,-7.30601 148.31006,41.60527 214.3965,7.81382 0.74534,3.18731 8.22056,6.80902 14.14246,6.85196 1.52216,0.0107 4.07216,1.40875 5.66667,3.10602 2.33149,2.48177 2.89908,4.70061 2.89908,11.33333 v 8.2474 h 9.33333 c 8.44444,0 9.33334,-0.25397 9.33334,-2.66667 0,-1.46666 0.6,-2.66666 1.33333,-2.66666 0.73333,0 1.34292,-0.75 1.35463,-1.66667 0.012,-0.91667 1.66172,-3.51948 3.66666,-5.78404 3.23031,-3.64856 4.73664,-4.21805 13.22956,-5.00164 5.27131,-0.48635 11.1257,-1.47035 13.00975,-2.18667 1.88405,-0.71632 6.55839,-1.58709 10.3874,-1.93504 3.89189,-0.35368 7.58493,-1.48476 8.37481,-2.565 0.89418,-1.22284 2.73823,-1.679 5.02235,-1.24237 1.98515,0.37949 8.28353,0.007 13.9964,-0.8288 6.3376,-0.92668 29.08147,-1.49383 58.3394,-1.45475 55.63095,0.0743 66.54761,1.11468 106.61904,10.16102 13.86979,3.13117 13.79871,3.10258 14.68832,5.90549 0.45607,1.43697 2.01911,2.59847 3.49677,2.59847 1.46963,0 3.57206,0.9 4.67206,2 2.26788,2.26788 5.80952,2.6743 5.80952,0.66666 0,-0.73333 1.5,-1.33333 3.33333,-1.33333 2.66667,0 3.33333,0.66667 3.33333,3.33333 0,2.73764 -0.65525,3.34058 -3.66666,3.37388 -3.36211,0.0372 -3.45214,0.16503 -1.08396,1.53915 1.77245,1.02845 22.87301,1.69436 67.25836,2.12257 50.78716,0.48999 65.04965,0.99798 66.41729,2.36562 1.39788,1.39789 1.74164,18.9979 1.74164,89.17021 v 87.42857 H 408 1.7624129e-7 Z M 494,588.3307 c -12.08872,-3.39934 -14.26181,-4.72422 -23.84237,-14.53602 -8.17052,-8.36774 -10.88223,-10.23684 -19.49096,-13.43456 -16.568,-6.15419 -18.25299,-7.08002 -22.12518,-12.15672 -7.23469,-9.48516 -5.76172,-24.40499 4.23966,-42.94367 5.01721,-9.29999 8.51554,-21.90448 12.12248,-43.6774 1.95145,-11.77976 2.411,-21.75272 2.33469,-50.66667 -0.0867,-32.81805 -0.47725,-38.8284 -4.41957,-68 -2.37852,-17.6 -4.89991,-38.6 -5.60311,-46.66666 -1.50491,-17.26346 0.17444,-46.02115 3.97096,-68 1.3934,-8.06667 2.95751,-20.06667 3.4758,-26.66667 1.09687,-13.9678 2.79481,-17.35368 9.65832,-19.25975 8.93192,-2.48048 42.578,-1.74998 54.00481,1.1725 17.19775,4.39845 32.40552,13.52865 35.67287,21.41672 1.38651,3.34734 1.31339,5.36125 -0.42451,11.6906 -4.45608,16.22882 -6.24056,30.18373 -6.24056,48.80206 0,24.41192 -2.75728,47.42224 -8.56902,71.5112 -2.56543,10.63334 -8.70883,40.33334 -13.65199,66 -8.4424,43.83586 -8.98771,47.79899 -8.98949,65.33334 l -0.001,18.66666 8.33198,20.49979 c 4.58257,11.27488 9.8846,22.53539 11.78226,25.02336 2.35463,3.08707 7.77262,6.63979 17.06115,11.18747 15.72287,7.69792 18.76236,10.50626 19.73093,18.23037 1.27028,10.13024 -6.7082,18.88424 -22.48132,24.66655 -10.05802,3.68718 -36.24505,4.7041 -46.54593,1.8075 z M 261.33333,576.82114 c -5.60914,-1.63481 -10.66666,-6.90538 -10.66666,-11.11598 0,-5.5327 5.89901,-11.98298 19.6224,-21.45616 24.61732,-16.99322 29.30902,-22.01886 50.96782,-54.59563 16.25236,-24.445 19.88763,-30.8146 21.3627,-37.43108 1.1035,-4.94985 2.00388,-20.61315 2.37442,-41.30663 0.53848,-30.07252 0.26051,-36.0072 -2.84161,-60.66666 -4.41853,-35.1239 -9.41063,-86.1005 -12.07792,-123.33334 -1.2228,-17.06901 -2.98084,-32.13741 -4.2048,-36.04002 -2.91333,-9.28912 -2.13609,-13.95828 2.79699,-16.80247 8.0584,-4.64611 41.12353,-9.18532 66.4746,-9.12569 16.46305,0.0387 22.90489,1.40829 27.30096,5.80434 3.0895,3.08952 3.23522,3.75775 1.83741,8.4264 -1.18907,3.9715 -1.08043,7.81676 0.50111,17.73744 1.11061,6.96667 2.36833,23.16667 2.79492,36 0.84544,25.43386 -0.33124,38.26854 -5.55063,60.54382 -6.05071,25.82314 -9.17645,56.35688 -10.65909,104.12285 -1.00416,32.35115 0.75464,53.60743 5.90209,71.33052 4.96156,17.08312 5.57695,32.55912 1.59025,39.99272 -2.42568,4.52295 -4.56465,5.87943 -23.2376,14.73679 -8.21208,3.89534 -12.64469,9.0533 -19.59665,22.80341 -8.90461,17.61227 -15.44139,22.9632 -34.13893,27.9458 -9.03627,2.40803 -15.24355,2.88211 -43.21844,3.3008 -19.8072,0.29645 -34.50374,-0.0465 -37.33334,-0.87123 z M 37.6,100.649 c -2.200622,-2.200627 -2.200622,-30.599381 0,-32.800004 2.200623,-2.200623 30.599378,-2.200623 32.8,0 2.200623,2.200623 2.200623,30.599377 0,32.800004 -2.200622,2.20062 -30.599377,2.20062 -32.8,0 z M 67.713311,84.582329 67.333334,70.915663 H 54 40.666667 L 40.28669,84.582329 39.906712,98.248996 H 54 68.093288 Z m 18.184395,-19 c 0.0011,-15.4 0.19518,-21.517389 0.431314,-13.594198 0.236134,7.92319 0.235244,20.52319 -0.002,28 -0.237202,7.476809 -0.430402,0.994198 -0.429314,-14.405802 z m 642.666664,0 c 10e-4,-15.4 0.19518,-21.517389 0.43131,-13.594198 0.23615,7.92319 0.23525,20.52319 -10e-4,28 -0.23787,7.476809 -0.43107,0.994198 -0.42998,-14.405802 z M 97.547774,73.930103 C 96.696498,73.078827 96,68.62344 96,64.029241 96,57.423319 96.48805,55.423307 98.333334,54.467313 99.616667,53.802451 106.66667,53.331341 114,53.420401 l 13.33333,0.161928 0.12446,5.333334 c 0.20963,8.983296 0.2866,9.205317 2.5422,7.333333 1.1,-0.912919 2,-3.665276 2,-6.116348 0,-5.682708 2.2338,-6.84134 13.48315,-6.993456 11.69605,-0.158157 12.85329,0.916113 13.40416,12.443137 l 0.44603,9.333334 -30.1189,0.281106 C 107.79469,75.396684 98.648502,75.030837 97.547767,73.930103 Z m 9.118896,-9.681107 c 0,-1.1 -0.9,-2 -2,-2 -1.1,0 -2,0.9 -2,2 0,1.1 0.9,2 2,2 1.1,0 2,-0.9 2,-2 z m 57.16666,10.666667 c -0.89952,-3.598071 -0.27448,-20.223751 0.78872,-20.979583 3.1938,-2.270477 9.85895,-1.010396 12.51482,2.365992 l 2.66376,3.386411 0.43301,-3.053078 c 0.49063,-3.459181 5.43127,-4.87765 8.40193,-2.412213 1.36844,1.135708 2.51326,1.080617 4.5979,-0.221255 4.70441,-2.937957 7.522,0.0075 6.98785,7.305 -0.41591,5.682188 -0.25353,6.034166 2.45657,5.325454 2.59928,-0.679726 2.81171,-1.360406 2.03695,-6.526888 -1.11783,-7.454179 -1.44247,-7.380998 30.61849,-6.90181 l 25.33334,0.378636 0.4401,3.855324 c 0.24434,2.140423 -0.32134,4.32592 -1.27172,4.913286 -1.39158,0.860048 -1.38696,1.664965 0.0248,4.30276 3.00507,5.615008 1.51932,8.208941 -4.96984,8.676776 -3.16453,0.228146 -6.50364,-0.207578 -7.42022,-0.968275 -1.15319,-0.957063 -2.10222,-0.947388 -3.08102,0.03141 -0.77797,0.777974 -2.83369,1.213698 -4.56826,0.968276 -2.74062,-0.38776 -3.2071,-1.276053 -3.56023,-6.77956 -0.37076,-5.778005 -0.70191,-6.333333 -3.77668,-6.333333 -3.19404,0 -3.34711,0.331216 -2.92695,6.333333 0.40271,5.75275 0.1616,6.373274 -2.63004,6.769019 -1.69037,0.239627 -3.83464,-0.196097 -4.76506,-0.968276 -1.13136,-0.938944 -2.1347,-0.960931 -3.02924,-0.06637 -0.81232,0.812318 -9.41298,1.192556 -21.90162,0.968274 -20.18265,-0.362461 -20.57193,-0.424948 -20.99009,-3.36931 -0.56479,-3.976742 -2.66467,-3.81168 -4.2406,0.333333 -0.88995,2.340739 -2.26975,3.333333 -4.63367,3.333333 -1.85148,0 -3.44133,-0.3 -3.533,-0.666666 z m 56.99116,-12.286615 c -0.39021,-0.390219 -1.65628,-0.346171 -2.81346,0.09788 -1.88334,0.722704 -1.8544,1.190645 0.27584,4.462184 l 2.3798,3.654812 0.43365,-3.752695 c 0.23852,-2.063982 0.1144,-4.071965 -0.27583,-4.462184 z m 25.84218,3.619948 c 0,-2.2 -0.6,-4 -1.33334,-4 -0.73333,0 -1.33333,1.8 -1.33333,4 0,2.2 0.6,4 1.33333,4 0.73334,0 1.33334,-1.8 1.33334,-4 z m -55.11696,-7 c -0.36988,-0.916667 -0.67252,-0.166667 -0.67252,1.666667 0,1.833333 0.30264,2.583333 0.67252,1.666666 0.36988,-0.916666 0.36988,-2.416666 0,-3.333333 z m 408.15509,14 c -0.24892,-0.55 -0.41657,-5.2 -0.37256,-10.333333 l 0.08,-9.333334 28.29388,-0.35985 28.29387,-0.35985 v 3.75985 c 0,2.067918 -0.72,4.47985 -1.6,5.35985 -1.24444,1.244444 -1.24444,1.955556 0,3.2 0.88,0.88 1.6,3.28 1.6,5.333334 0,3.636364 -0.19048,3.733333 -7.33334,3.733333 -6.99641,0 -7.33333,-0.158249 -7.33333,-3.444444 0,-4.135705 -3.12777,-3.739648 -3.74969,0.474807 -0.38115,2.582878 -1.25503,2.821489 -10.33334,2.821489 h -9.91697 l -0.0204,-5.592593 c -0.0112,-3.075926 -0.63361,-6.492592 -1.38308,-7.592592 -1.01405,-1.488336 -1.31831,-0.46501 -1.18927,4 0.0953,3.3 0.11774,6.75 0.0497,7.666666 -0.13547,1.825918 -14.27802,2.450912 -15.08552,0.666667 z m 29.60812,-8.666667 c 0.0277,-3.178093 -2.26925,-2.954989 -3.30913,0.321402 -1.09206,3.44076 0.53956,6.35065 2.14246,3.820949 0.63044,-0.99496 1.15544,-2.859017 1.16667,-4.142351 z m 29.90993,7.859564 c -0.3814,-0.993906 -0.51256,-5.643906 -0.29148,-10.333333 l 0.40196,-8.526231 29.90719,-0.359484 c 19.63683,-0.236034 30.38937,0.12272 31.31133,1.044672 1.91802,1.918019 2.35931,16.080318 0.5683,18.238355 -2.15066,2.591384 -60.90164,2.530657 -61.8973,-0.06397 z m 34.11048,-9.668882 c 0,-1.021542 -0.9,-1.857348 -2,-1.857348 -1.10048,0 -2,1.180536 -2,2.62482 0,1.785384 0.63962,2.379377 2,1.857348 1.1,-0.42211 2,-1.603279 2,-2.62482 z m 15.053,0.809318 c -0.38354,-1.466666 -0.92737,-2.666666 -1.2085,-2.666666 -0.28114,0 -0.51116,1.2 -0.51116,2.666666 0,1.466667 0.54382,2.666667 1.2085,2.666667 0.66468,0 0.89471,-1.2 0.51116,-2.666667 z M 35.592451,53.397003 C 33.919559,51.724111 34.52783,20.2545 36.266667,18.515663 c 2.415624,-2.415625 32.246792,-2.194457 34.278949,0.254142 1.028194,1.238899 1.41419,7.322302 1.16326,18.333334 l -0.375542,16.47919 -17.40755,0.37023 c -9.57415,0.203625 -17.82415,-0.04637 -18.333333,-0.555556 z"
       style="fill:black;stroke-width:1.33333337" />
    <path
       id="primaryColor"
       d="m 459.61901,758.7569 c -2.46853,-2.46854 -0.71422,-6.0768 3.88979,-8.00048 5.68115,-2.37373 7.56063,-1.19916 6.92877,4.33015 -0.37941,3.32009 -1.06424,3.88184 -5.15189,4.22588 -2.59288,0.21824 -5.14288,-0.0317 -5.66667,-0.55555 z m 23.93655,-0.0635 c -1.2074,-1.20739 -1.09057,-10.06304 0.15865,-12.0277 1.31168,-2.06284 8.15851,-4.65278 9.73102,-3.68093 1.79324,1.10829 1.48981,13.12915 -0.37856,14.99752 -1.7112,1.7112 -8.038,2.18423 -9.51111,0.71111 z m 33.34371,0.0107 c -0.48318,-0.48318 -0.5088,-4.85636 -0.0569,-9.71817 0.73344,-7.8916 0.43034,-9.62065 -2.82618,-16.12149 -2.00627,-4.005 -5.08064,-9.1918 -6.83195,-11.5262 -1.75131,-2.3344 -3.18419,-4.5844 -3.18419,-5 0,-0.4156 2.64272,-0.75563 5.87272,-0.75563 5.72791,0 5.97479,0.18084 10.0114,7.33333 2.27628,4.03334 4.58355,7.31163 5.12728,7.2851 0.54374,-0.0265 3.09816,-3.17654 5.67651,-7 4.07817,-6.04759 5.33547,-7.00559 9.66667,-7.36559 3.0166,-0.25072 4.97876,0.17135 4.97876,1.07097 0,0.81664 -3.42132,6.10286 -7.60292,11.74716 -6.75471,9.11744 -7.72016,11.22926 -8.65366,18.92903 -0.5779,4.76667 -1.33776,9.41667 -1.68856,10.33333 -0.65912,1.72227 -8.93309,2.344 -10.48893,0.78816 z m 37.02701,-0.5741 c -0.49377,-0.79895 -0.3794,-8.44895 0.25416,-17 1.30705,-17.64092 1.29513,-19.95532 -0.11947,-23.21406 -0.92846,-2.13878 0.16002,-2.33333 13.05539,-2.33333 12.94931,0 14.36585,0.25595 17.80932,3.21789 3.0826,2.65155 3.74101,4.28886 3.74101,9.30303 0,8.3286 -4.4206,12.71465 -14.92272,14.80608 l -7.74394,1.54215 -0.70126,5.89876 c -0.38569,3.24432 -1.1711,6.64876 -1.74536,7.56542 -1.28397,2.04956 -8.39498,2.20767 -9.6271,0.21406 z m 23.96488,-26.94936 c 1.01945,-1.61618 1.01016,-2.93288 -0.0324,-4.59803 -1.80983,-2.89045 -8.49849,-3.85111 -10.02693,-1.44011 -1.70662,2.69207 -1.3818,8.81114 0.50157,9.44915 2.71417,0.91945 8.02085,-0.97441 9.55783,-3.41101 z m 15.14589,26.77625 c -0.33716,-0.93919 -0.0716,-7.40761 0.58999,-14.37428 0.66165,-6.96667 0.97672,-16.13377 0.70016,-20.37133 l -0.50285,-7.70467 16.75449,0.37133 16.75449,0.37134 v 3.33333 c 0,3.2 -0.4,3.36 -10,4 -9.72865,0.64857 -10.01145,0.76616 -10.42189,4.33333 -0.41496,3.60634 -0.30135,3.66667 6.90476,3.66667 8.52145,0 12.38873,2.54671 10.16812,6.69597 -1.05405,1.96951 -3.13747,2.5963 -9.66403,2.90742 -8.07717,0.38502 -8.33316,0.50926 -8.7604,4.25193 -0.57845,5.06735 1.36478,6.09963 11.52867,6.12427 8.39676,0.0204 8.42064,0.0313 8,3.68708 l -0.42189,3.66666 -15.50831,0.37428 c -11.66984,0.28164 -15.66003,-0.0484 -16.12131,-1.33333 z M 267.20264,745.72282 c -0.39252,-1.02288 -0.52368,-4.17288 -0.29148,-7 l 0.42217,-5.14049 L 278,733.40181 c 5.86667,-0.0993 11.73644,0.3824 13.04392,1.07041 1.5564,0.819 3.9346,0.68782 6.8874,-0.37993 3.79595,-1.37264 5.02733,-1.292 7.7764,0.50925 2.517,1.64922 3.62849,1.77778 4.84533,0.56047 1.86748,-1.86817 22.44118,-2.5404 23.53595,-0.76901 0.43055,0.69664 1.74624,0.65776 3.14919,-0.0931 2.31826,-1.24069 38.25232,-1.00485 39.51653,0.25936 1.11791,1.11791 -4.92507,13.18849 -6.36272,12.70928 -0.77748,-0.25916 -2.08373,-2.54459 -2.9028,-5.07872 -1.84156,-5.69768 -6.55761,-6.52269 -7.28363,-1.27417 -0.92836,6.71138 -5.5389,8.44656 -5.5389,2.08457 0,-1.70027 -0.85816,-3.8036 -1.90702,-4.67407 -1.52032,-1.26176 -2.18672,-1.06004 -3.28642,0.99476 -0.75867,1.4176 -1.02639,2.93046 -0.59494,3.36192 0.43147,0.43146 0.41926,1.73623 -0.0271,2.89948 -0.64546,1.68202 -1.36722,1.81764 -3.52562,0.66251 -1.4927,-0.79887 -3.4434,-1.00171 -4.33488,-0.45073 -0.89148,0.55096 -4.7697,1.18558 -8.61828,1.41025 -5.82968,0.34033 -7.2769,-0.0391 -8.67229,-2.27343 -2.09665,-3.35726 -3.79405,-3.37396 -7.98353,-0.0785 -2.53914,1.99728 -3.67527,2.23788 -4.87976,1.03339 -1.2045,-1.2045 -2.17895,-1.18978 -4.18534,0.0632 -3.0888,1.92898 -7.866,2.08924 -10.60676,0.3558 -1.23952,-0.78395 -2.58177,-0.71671 -3.66666,0.18368 -1.22395,1.01577 -2.28103,0.94756 -3.71139,-0.23954 -1.60101,-1.32872 -2.42408,-1.3079 -4.12573,0.1044 -1.81136,1.5033 -2.47054,1.30712 -4.45704,-1.32645 -2.5313,-3.35583 -7.19143,-3.02679 -8.58554,0.6062 -0.94821,2.47097 -3.36254,2.52125 -4.29572,0.0895 z M 336,742.249 c 0,-0.73334 -0.6,-1.33334 -1.33333,-1.33334 -0.73334,0 -1.33334,0.6 -1.33334,1.33334 0,0.73333 0.6,1.33333 1.33334,1.33333 0.73333,0 1.33333,-0.6 1.33333,-1.33333 z m -33.33333,-2 c 0,-1.1 -0.6,-2 -1.33334,-2 -0.73333,0 -1.33333,0.9 -1.33333,2 0,1.1 0.6,2 1.33333,2 0.73334,0 1.33334,-0.9 1.33334,-2 z m 83.42857,5.23809 c -2.80979,-2.80977 -2.64935,-7.65667 0.34308,-10.36477 2.83159,-2.56256 5.95801,-2.80195 9.79248,-0.7498 1.96864,1.05358 3.12543,1.05358 4.17901,0 2.17539,-2.17539 8.88378,-1.77852 9.78847,0.57906 0.74091,1.93076 -5.56713,12.63075 -7.44628,12.63075 -0.48693,0 -1.60533,-0.72 -2.48533,-1.6 -1.24444,-1.24444 -1.95556,-1.24444 -3.2,0 -2.26536,2.26536 -8.49188,1.98431 -10.97143,-0.49524 z m 7.23809,-5.23809 c 0,-1.1 -0.56458,-2 -1.25464,-2 -1.6813,0 -2.88546,2.08212 -1.82022,3.14736 1.50158,1.50157 3.07486,0.91452 3.07486,-1.14736 z m 19.86474,7.07869 c -0.0744,-0.22661 -0.34287,-2.70151 -0.59658,-5.49977 -0.31334,-3.45594 0.0393,-4.92087 1.09963,-4.56744 1.84507,0.61502 2.51669,8.69652 0.81039,9.75108 -0.648,0.40048 -1.23904,0.54274 -1.31344,0.31613 z m 49.4686,-4.07791 c 0,-3.10274 0.52957,-3.33373 9.5688,-4.17385 12.4994,-1.16169 14.38657,0.85691 3.38474,3.62047 -4.70081,1.18081 -9.53841,2.5274 -10.75024,2.99241 -1.68138,0.64521 -2.2033,0.0675 -2.2033,-2.43903 z m -0.44444,-8.55634 c -0.4889,-0.48888 -0.8889,-4.05348 -0.8889,-7.92131 0,-3.86783 -0.6,-7.40324 -1.33333,-7.85647 -3.34513,-2.06741 -0.80692,-3.44238 5.66667,-3.06968 l 7,0.40302 0.39518,7.50957 c 0.29147,5.53875 -0.17093,8.07569 -1.7619,9.66667 -2.17636,2.17636 -7.43492,2.91101 -9.07772,1.2682 z m 23.46217,-0.62671 c -0.93801,-0.93801 -1.23105,-3.91803 -0.76896,-7.81972 0.47279,-3.99193 0.19732,-6.64363 -0.75107,-7.22976 -3.50085,-2.16364 -1.09369,-3.55101 5.5023,-3.17127 l 7,0.40302 -0.1367,8.46644 c -0.14282,8.84682 -1.33508,10.80717 -6.59664,10.84648 -1.50333,0.0107 -3.41534,-0.6616 -4.24893,-1.49519 z M 494,588.3307 c -8.30698,-1.62716 -18.10442,-7.17823 -18.65474,-10.15112 -0.4089,-2.20888 1.10403,-5.39966 7.55893,-4.59318 12.51309,1.56341 37.097,-4.98112 39.18892,-10.43258 0.66617,-1.73601 -11.65738,-19.67969 -14.18672,-20.65653 -0.59582,-0.23011 -2.02971,1.4118 -3.18644,3.64867 -3.01972,5.83949 -9.8259,13.2503 -14.28879,15.55816 -2.11181,1.09206 -15.44554,8.42184 -20.0718,8.85384 -7.30189,0.68187 -5.13882,-2.73717 -12.19629,-5.90437 -8.61121,-3.86449 -14.15347,-5.84696 -10.06865,-7.14343 5.6558,-1.79509 26.59805,-25.59628 26.56185,-31.55018 -0.0107,-1.67404 -15.47942,-23.45076 -21.81574,-30.71098 -1.96325,-2.24952 -9.15617,-1.8233 -11.2954,-1.8233 -4.25321,0 -3.97148,-2.18884 -0.61252,-19.68976 7.88236,-41.06868 8.2507,-76.52219 -1.30721,-144.20582 -4.88343,-34.58158 -4.29092,-71.67242 0.29371,-97.86742 1.65103,-9.43335 3.61771,-23.11895 4.18267,-30.41244 0.72503,-9.36001 2.42862,-15.58401 3.94831,-17.10372 4.00762,-4.0076 32.50131,-5.493 50.82625,-2.8432 17.71133,2.56108 40.4518,10.36534 44.14508,19.97477 l 2.73822,7.1245 -3.19633,12.35944 c -2.70381,10.45501 -2.94221,17.89592 -3.91145,40.97389 -1.31008,31.19345 -3.39795,54.43293 -7.32735,69.43475 -3.84637,14.68484 -8.90156,35.73152 -17.57939,80.61394 -7.06101,36.52014 -6.43077,42.43493 -6.43509,58.86898 l -1.1882,16.26205 8.49831,19.33334 c 12.43097,28.28001 13.49864,30.20895 27.19265,37.19511 17.90766,4.76393 24.13865,15.0902 21.1692,25.80692 -3.04594,10.99282 -19.32761,21.57365 -40.76607,20.57489 18.45063,0.74936 -7.55645,2.85038 -18.77367,1.94239 z M 320,570.02801 c 0,-5.11487 -5.17055,-11.05096 -13.11497,-15.05677 -5.54464,-2.79576 -20.36412,-6.0017 -27.88503,-6.03243 -7.59969,-0.0311 -12.02061,-3.11354 -3.48017,-8.89212 14.52377,-9.82698 27.57471,-22.95557 45.5595,-50.66142 9.43585,-14.53608 18.78052,-30.37403 19.70384,-33.07129 2.9494,-8.61598 4.16781,-26.87783 4.17166,-53.2199 0.003,-20.48251 -0.35978,-31.10911 -3.54184,-56.46436 -4.73174,-37.7032 -7.97631,-74.8736 -11.50532,-119.65525 -1.60872,-20.4138 -4.73444,-35.85187 -6.11933,-40.08592 -2.69369,-8.2355 -2.03237,-11.24741 3.97781,-13.75862 11.63222,-4.86026 61.39341,-9.82219 79.17905,-7.78644 13.16795,1.5072 18.95196,3.10245 19.01634,16.88378 0.0281,6.02275 -0.45851,16.78493 0.5117,23.38493 2.26743,15.42459 3.26477,52.02816 1.10085,65.76783 -0.92398,5.86666 -3.53428,18.4046 -5.26963,25.73794 -6.80472,28.75562 -9.48193,65.36082 -9.4898,116.74614 -0.005,31.47164 -0.13133,35.76413 2.3328,45.50849 l 2.33825,11.83361 -6.66308,8.87433 c -5.90321,7.86228 -4.0013,10.52071 -3.2544,21.10424 0.741,10.50015 2.31733,14.62468 -0.39529,17.33731 -3.84531,3.8453 -4.92443,6.92115 -6.17713,0.89191 -1.10282,-5.30794 -7.24054,-18.49834 -9.14178,-18.49834 -0.64494,0 -5.12842,5.94139 -9.96328,13.20308 -7.72902,11.60855 -8.6045,13.55092 -7.24916,16.0834 0.84784,1.58419 4.60491,8.40319 4.63181,10.37398 0.0776,5.69296 -10.33864,20.67115 -16.82377,25.61365 -6.65923,5.07517 -19.75132,10.04909 -32.07528,10.58406 L 320,577.22417 Z M 99.052318,72.208507 C 97.733274,71.243916 97.296736,68.662301 97.586831,63.54184 L 98,56.248996 l 14.12275,-0.178641 14.12274,-0.17864 -0.60907,6.338729 c -0.67045,6.977532 0.77877,8.960541 4.92632,6.740837 1.84232,-0.98598 2.73923,-3.077982 3.02755,-7.061658 L 134,56.248996 h 11.33333 11.33334 l 0.15517,8.666667 0.15519,8.666666 H 128.954 c -17.1282,0 -28.75341,-0.534116 -29.901682,-1.373822 z m 6.211802,-3.255804 c 3.46754,-1.85577 4.28135,-4.967762 1.91732,-7.331788 -3.69882,-3.698822 -5.84811,-2.48794 -5.84811,3.294748 0,5.746988 0.25205,6.005845 3.93079,4.03704 z M 116,64.170307 c 0,-3.189314 -0.60971,-4.587978 -2,-4.587978 -1.37778,0 -2,1.382716 -2,4.444444 0,2.444446 0.38369,4.828134 0.85264,5.297086 C 114.55391,71.025133 116,68.657284 116,64.170307 Z m 24.78505,2.748337 c 0.95335,-3.798425 -0.0481,-7.336315 -2.07654,-7.336315 -0.75635,0 -1.37518,2.4 -1.37518,5.333334 0,5.9266 2.15335,7.17615 3.45172,2.002981 z m 12.54828,-5.336315 c 0,-1.1 -0.6,-2 -1.33333,-2 -0.73333,0 -1.33333,0.9 -1.33333,2 0,1.1 0.6,2 1.33333,2 0.73333,0 1.33333,-0.9 1.33333,-2 z m 12.79703,11.68591 c -0.43837,-0.438362 -0.79703,-4.63324 -0.79703,-9.321952 v -8.524932 l 5,0.413821 c 4.74838,0.392995 5.02114,0.670588 5.41991,5.516005 0.34776,4.225371 -0.0532,5.225916 -2.33333,5.822175 -1.51428,0.395995 -2.75324,1.785819 -2.75324,3.088497 0,2.41032 -3.08671,4.455996 -4.53631,3.006386 z m 7.20297,-12.431266 c 0,-0.690054 -0.9,-1.254644 -2,-1.254644 -2.06188,0 -2.64893,1.573284 -1.14736,3.074863 1.06524,1.065241 3.14736,-0.138915 3.14736,-1.820219 z m 6.04416,12.150139 c -0.38934,-0.629981 0.0861,-4.653777 1.05651,-8.941768 1.38708,-6.129004 2.35012,-7.882924 4.50309,-8.201172 2.29702,-0.339539 2.87862,0.520567 3.60638,5.333333 0.47722,3.155987 1.45017,6.638158 2.1621,7.738158 2.2026,3.403205 4.14896,-1.187738 3.25034,-7.666667 -0.7006,-5.051203 -0.4943,-5.666667 1.89957,-5.666667 2.42909,0 2.61219,0.619419 1.91733,6.486391 -0.85426,7.212972 -0.10013,8.255376 5.23479,7.235545 3.39485,-0.648968 3.65907,-1.169633 3.65907,-7.210705 v -6.511231 h 26.76442 c 24.7778,0 26.73,0.173196 26.30047,2.333334 -0.30875,1.552742 -1.45659,2.193782 -3.43109,1.916189 -3.19378,-0.449008 -3.8527,0.998251 -1.51763,3.33332 1.0438,1.043791 1.0438,1.700259 0,2.345356 -0.79723,0.492716 -1.44951,1.771868 -1.44951,2.84256 0,1.410703 0.9178,1.716359 3.33334,1.1101 2.50829,-0.62954 3.33333,-0.312097 3.33333,1.282528 0,2.439428 -5.25405,4.131327 -9.0692,2.920445 -2.1918,-0.69565 -2.4936,-1.723177 -1.94241,-6.613304 0.73417,-6.513562 -0.80954,-8.373652 -5.06104,-6.09831 -2.3622,1.264212 -2.66127,2.283753 -1.93348,6.591492 0.47353,2.802776 0.33997,5.417942 -0.29679,5.81148 -2.27379,1.40528 -3.78209,-1.192702 -3.73992,-6.441856 l 0.0428,-5.333334 h -5.33333 -5.33334 v 5.63244 c 0,3.097842 -0.45,5.647842 -1,5.666667 -0.54996,0.01882 -1.54286,0.03423 -2.20641,0.03423 -0.66356,0 -0.89499,-2.322212 -0.51429,-5.160472 0.78884,-5.881291 0.49092,-6.183732 -7.37371,-7.485546 -5.53852,-0.916778 -5.69617,-0.849628 -4.08023,1.737927 1.3375,2.14166 1.34356,3.098029 0.0297,4.681119 -1.97036,2.374128 -0.11614,3.960528 3.15986,2.70342 1.7049,-0.654228 2.13635,-0.248388 1.76728,1.66234 -0.4409,2.282708 -1.84416,2.536682 -14.46856,2.618653 -10.47253,0.068 -14.56574,-0.402031 -16.31362,-1.873317 -1.28334,-1.08025 -2.33334,-1.335292 -2.33334,-0.566759 0,1.827105 -3.70781,3.234093 -4.6225,1.754084 z m 421.95584,-9.328119 v -9.409997 h 5.79288 5.7929 l -0.20068,9 -0.20068,9 -5.59222,0.409997 -5.5922,0.409998 z M 608,67.582329 c 0,-0.733333 -0.6,-1.333333 -1.33333,-1.333333 -0.73334,0 -1.33334,0.6 -1.33334,1.333333 0,0.733334 0.6,1.333334 1.33334,1.333334 0.73333,0 1.33333,-0.6 1.33333,-1.333334 z m 1.33333,-8 c 0,-0.733333 -0.9,-1.333333 -2,-1.333333 -1.1,0 -2,0.6 -2,1.333333 0,0.733334 0.9,1.333334 2,1.333334 1.1,0 2,-0.6 2,-1.333334 z m 10.51908,12.333334 c -0.0812,-0.55 -0.0353,-2.372643 0.102,-4.050316 0.13728,-1.677674 -0.98886,-5.149359 -2.50254,-7.714858 -2.01415,-3.413726 -2.30894,-4.834618 -1.09932,-5.298792 0.90906,-0.348837 9.75161,-0.477152 19.65013,-0.285142 C 650.95625,54.856621 654,55.253908 654,56.915663 c 0,1.308784 -1.03683,1.855832 -3,1.582856 -3.21457,-0.44698 -4.07485,2.14229 -1.55049,4.666653 1.0438,1.043791 1.0438,1.700259 0,2.345356 -2.54512,1.572975 -1.55531,3.587469 1.55049,3.155612 1.96317,-0.272976 3,0.274072 3,1.582856 0,1.444444 -1.48148,2 -5.33333,2 -4.91859,0 -5.33334,-0.282797 -5.33334,-3.636552 0,-4.243395 -0.16826,-4.327201 -5,-2.490181 -2.39194,0.909416 -3.66666,2.366596 -3.66666,4.191497 0,1.917911 -0.71443,2.659847 -2.27234,2.359823 -1.85562,-0.357362 -2.20426,-1.720091 -1.90114,-7.431099 0.30118,-5.674553 -0.0309,-6.993488 -1.76067,-6.993488 -2.47575,0 -4.73252,5.127959 -4.73252,10.753467 0,2.58951 -0.67652,3.9132 -2,3.9132 -1.1,0 -2.06641,-0.45 -2.14759,-1 z m 17.68092,-11.666667 c 0,-0.696667 -0.645,-1.481667 -1.43333,-1.744444 -0.78833,-0.262779 -1.43333,0.522221 -1.43333,1.744444 0,1.222223 0.645,2.007223 1.43333,1.744444 0.78833,-0.262777 1.43333,-1.047777 1.43333,-1.744444 z m 23.5453,10.359768 c -1.45946,-1.758536 -0.70742,-2.165863 3.2547,-1.762829 3.52146,0.358208 2.7977,-2.486392 -1,-3.930272 -3.64553,-1.386031 -4.63793,-6.697519 -1.66666,-8.920303 0.91905,-0.687533 14.21828,-1.209339 29.64798,-1.16326 25.78534,0.077 28.01742,0.270801 28.4412,2.469373 0.37756,1.958668 -0.1562,2.23118 -2.98132,1.522123 -4.56168,-1.144911 -4.58104,1.724701 -0.0233,3.457543 2.84912,1.083233 3.34833,2.020709 3,5.633665 l -0.41787,4.334192 -28.42477,0.02644 c -21.37656,0.01988 -28.7732,-0.393387 -29.82993,-1.666667 z m 52.75237,-2.24012 c 3.38133,1.29754 2.54749,-1.564957 -1.16433,-3.997039 -1.83334,-1.201246 -3.33334,-3.463245 -3.33334,-5.026664 0,-2.758122 -0.0792,-2.770877 -2.66666,-0.429278 -3.22118,2.915117 -3.322,4.47103 -0.54654,8.433554 1.57538,2.249166 2.55972,2.662072 3.831,1.607004 0.94098,-0.780945 2.68692,-1.045354 3.87987,-0.587577 z m -35.16433,-4.897425 c 0,-3.759404 -0.51583,-5.274568 -1.66667,-4.895563 -3.15064,1.037597 -2.8884,10.340007 0.29149,10.340007 0.75635,0 1.37518,-2.45 1.37518,-5.444444 z m 15.44238,4.11111 c 1.19642,0 1.89095,-1.416092 1.89095,-3.855456 0,-3.019072 -0.73641,-4.040285 -3.39465,-4.707458 -4.49128,-1.12724 -5.93868,-0.05013 -5.93868,4.419381 0,4.337052 1.14408,5.834791 3.70606,4.851665 1.01496,-0.389472 2.6963,-0.708132 3.73632,-0.708132 z m -23.44238,-6.576816 c 0,-1.433349 -5.18699,-3.34731 -6.234,-2.3003 -0.38483,0.384835 -0.3042,1.339619 0.17917,2.121742 1.08081,1.748788 6.05483,1.895473 6.05483,0.178558 z M 37.380246,50.336651 C 36.621111,48.918195 36,42.061052 36,35.098556 c 0,-16.655732 0.199394,-16.84956 17.333334,-16.84956 17.13394,0 17.333333,0.193828 17.333333,16.84956 0,18.095073 0.27042,17.817107 -17.333333,17.817107 -13.043135,0 -14.717727,-0.270719 -15.953088,-2.579012 z"
       style="fill:black;stroke-width:1.33333337" />
   <text id="brimText" x="375" y="200" dominant-baseline="middle" text-anchor="middle" transform="rotate(0 0 0)" fill="black" font-size="22"></text>
   <text id="toeText" x="530" y="350" dominant-baseline="middle" text-anchor="middle" transform="rotate(25 0 0)" fill="black" font-size="22"></text>
  </g>
</svg>
