<?xml version="1.0" encoding="UTF-8" standalone="no"?>
<svg
   xmlns:dc="http://purl.org/dc/elements/1.1/"
   xmlns:cc="http://creativecommons.org/ns#"
   xmlns:rdf="http://www.w3.org/1999/02/22-rdf-syntax-ns#"
   xmlns:svg="http://www.w3.org/2000/svg"
   xmlns="http://www.w3.org/2000/svg"
   viewBox="0 0 800 800"
   height="500"
   width="500"
   id="svg80"
   version="1.1">
  <metadata
     id="metadata86">
    <rdf:RDF>
      <cc:Work
         rdf:about="">
        <dc:format>image/svg+xml</dc:format>
        <dc:type
           rdf:resource="http://purl.org/dc/dcmitype/StillImage" />
        <dc:title></dc:title>
      </cc:Work>
    </rdf:RDF>
  </metadata>
  <defs
     id="defs84">
    <clipPath
       id="clipPath110"
       clipPathUnits="userSpaceOnUse">
      <rect
         y="243.92166"
         x="171.03014"
         height="334.26505"
         width="491.56625"
         id="rect112"
         style="fill:#000000;fill-opacity:0.1871658" />
    </clipPath>
  </defs>
  <g
     clip-path="url(#clipPath110)"
     transform="translate(3.4758984,-10.427695)"
     id="g90">
    <path
       id="secondaryColor"
       d="m 0,703.94372 c 0,-87.77887 0.36108937,-112.45325 1.6666667,-113.88863 1.3905594,-1.52878 13.5944983,-1.70932 73.6666663,-1.08968 65.277387,0.67332 72.964817,0.52594 82.333337,-1.57854 6.37702,-1.4325 10.33333,-2.98258 10.33333,-4.0486 0,-2.56544 15.52396,-3.52824 54,-3.3491 18.33333,0.0853 40.53333,0.1236 49.33333,0.0849 64.69142,-0.28412 83.33334,0.33438 83.33334,2.76484 0,0.63857 0.7873,1.16105 1.74956,1.16105 0.96225,0 4.11225,1.11884 7,2.48632 4.84218,2.29299 10.81257,2.55399 76.78245,3.35659 57.23092,0.69626 72.82512,1.26257 78,2.83257 7.72111,2.34251 15.44789,2.52809 21.81012,0.52387 3.2784,-1.03278 44.29429,-1.40614 138.4924,-1.26071 111.53273,0.17219 134.13984,0.51192 135.66667,2.03875 C 815.69224,595.50176 816,614.30337 816,705.90476 V 816 H 408 0 Z M 542.66667,568.81 c -20.69812,-4.89811 -28.63926,-9.43519 -35.48648,-20.27479 -4.92666,-7.79922 -15.78632,-15.05497 -30.50268,-20.37997 C 470.36155,525.86985 464.6014,524 463.87719,524 c -3.30298,0 -12.02239,-5.74573 -16.29582,-10.73827 -5.83486,-6.81673 -8.2357,-15.96929 -7.08268,-27.00086 0.86906,-8.31462 6.04191,-23.04272 10.16003,-28.92754 4.57869,-6.54298 9.53625,-17.7031 12.92491,-29.0957 9.53936,-32.07119 12.70249,-50.37051 15.62224,-90.37766 2.66748,-36.5506 3.6615,-37.85921 26.72613,-35.18454 30.90355,3.5837 64.41721,16.13949 72.00867,26.97781 2.78846,3.98109 2.59108,9.8352 -0.50091,14.85605 -4.14727,6.73443 -9.93681,32.09968 -14.64375,64.15738 l -2.545,17.33333 7.95495,26 c 4.58205,14.97601 9.75816,29.05297 12.20783,33.20041 5.18604,8.78032 16.01632,17.15915 27.76882,21.48331 12.02264,4.42356 21.72307,10.09753 26.43178,15.46045 3.36189,3.82899 4.05228,5.75446 4.05228,11.30178 0,8.32194 -2.0986,12.46177 -10.01755,19.7612 -17.74708,16.35869 -54.55967,23.0389 -85.98245,15.60285 z M 210,547.12433 c -14.90236,-1.77377 -22,-7.02622 -22,-16.2806 0,-5.428 0.59488,-6.54612 6.33333,-11.90381 3.48334,-3.25221 8.88334,-7.67297 12,-9.82391 C 209.45,506.96508 212,504.6966 212,504.07493 c 0,-0.62165 3.15,-3.14148 7,-5.5996 10.26305,-6.5527 31.39192,-23.79754 38.57045,-31.48022 10.35678,-11.08412 56.21324,-81.12468 59.61614,-91.0569 4.27104,-12.46613 4.69865,-22.6545 2.20789,-52.60488 -4.25979,-51.22189 -4.25571,-50.10521 -0.20045,-54.92461 6.86436,-8.15783 12.00104,-9.07539 50.80597,-9.07539 32.4022,0 34.97149,0.17662 39.33333,2.70379 6.99652,4.05365 9.57238,10.28311 7.99307,19.33048 -0.70076,4.01448 -1.66783,16.59907 -2.14903,27.96573 -1.37377,32.44998 2.66682,64.11376 11.63972,91.21415 5.12567,15.48076 6.44166,31.78373 3.40583,42.19275 -3.08441,10.5756 -7.70473,15.20717 -20.36973,20.41938 -24.0096,9.88103 -32.86214,18.62011 -49.99334,49.35267 -11.51729,20.66147 -28.02428,28.75507 -68.17408,33.42667 -16.02105,1.86412 -69.46737,2.63972 -81.68577,1.18538 z M 15.555556,93.777777 c -1.642781,-1.64278 -1.002901,-31.797098 0.711111,-33.51111 2.200622,-2.200623 30.599377,-2.200623 32.8,0 1.679402,1.679402 2.330694,28.277741 0.790681,32.29095 -0.676928,1.764047 -3.475996,2.10905 -17.111111,2.10905 -8.965986,0 -16.701793,-0.4 -17.190681,-0.88889 z M 46,76.666667 V 63.333333 H 32.666667 19.333333 l -0.388566,11.894476 c -0.213711,6.541962 -0.07416,12.713815 0.310122,13.71523 0.538919,1.4044 3.676716,1.733425 13.7219,1.438857 L 46,90 Z m 682.56437,-16 c 10e-4,-15.4 0.19518,-21.51739 0.43131,-13.594199 0.23615,7.923191 0.23525,20.523191 -10e-4,28 -0.23787,7.476809 -0.43107,0.994199 -0.42998,-14.405801 z M 64.564372,58 c 0.0011,-15.4 0.19518,-21.517389 0.431315,-13.594199 0.236133,7.923191 0.235244,20.523191 -0.002,28 C 64.756484,79.882611 64.563284,73.4 64.564372,58 Z M 594.32553,71 c -0.27417,-0.55 -0.45958,-5.5 -0.41202,-11 l 0.0865,-10 h 28.66667 28.66666 l 0.44048,3.109953 c 0.24226,1.710475 -0.52288,4.174446 -1.7003,5.475491 -1.91454,2.11554 -1.92587,2.543904 -0.1072,4.053305 2.5557,2.121042 2.61828,5.88286 0.13213,7.946136 -1.0458,0.86794 -4.4958,1.391407 -7.66667,1.16326 -4.81125,-0.346178 -5.83564,-0.911185 -6.19121,-3.414812 -0.23433,-1.65 -0.84207,-3 -1.35049,-3 -0.50844,0 -1.51671,1.35 -2.2406,3 -1.47595,3.364186 -6.51982,4.65411 -9.27086,2.370942 -1.24466,-1.032975 -2.0771,-1.064863 -2.67197,-0.102347 -1.13096,1.829928 -6.44111,1.796981 -8.28952,-0.05143 -1.0438,-1.04379 -1.70027,-1.04379 -2.34536,0 -1.00061,1.619019 -14.96453,2.017648 -15.74627,0.44951 z m 17.47176,-10.561057 c -1.26598,-3.080406 -1.65577,-3.324979 -2.12522,-1.333483 -0.31619,1.341336 -0.1748,4.032856 0.31418,5.981155 0.7545,3.006124 1.07622,3.207984 2.12523,1.333482 0.79291,-1.416837 0.68025,-3.56151 -0.31419,-5.981154 z m 12.1823,0.482368 c -0.0155,-3.23743 -0.32944,-3.776478 -1.31292,-2.254644 -1.70891,2.644345 -1.70891,8.389496 0,7.333333 0.73333,-0.453225 1.32414,-2.738635 1.31292,-5.078689 z m 31.82809,9.626496 c -1.94604,-1.20272 -2.80769,-15.433579 -1.12487,-18.577975 1.09692,-2.049625 4.3512,-2.309399 31.0921,-2.481928 22.67846,-0.14632 30.18386,0.213027 31.18373,1.493032 1.83747,2.352273 1.95347,17.116753 0.15155,19.287943 -1.17078,1.410692 -7.62822,1.73183 -30.60283,1.521922 -16.01541,-0.146324 -29.83027,-0.705672 -30.69968,-1.242994 z m 34.85899,-9.88114 c 0,-1.111111 -1.18519,-2 -2.66667,-2 -1.48148,0 -2.66667,0.888889 -2.66667,2 0,1.11111 1.18519,2 2.66667,2 1.48148,0 2.66667,-0.88889 2.66667,-2 z m 13.57777,-0.955556 c -0.95675,-0.95675 -1.57777,-1.035472 -1.57777,-0.2 0,1.779708 1.57681,3.356521 2.46666,2.466666 0.3789,-0.378888 -0.0211,-1.398888 -0.88889,-2.266666 z M 75.850312,65.819636 c -2.339556,-2.818992 -2.434075,-15.373059 -0.136585,-18.141364 1.372368,-1.653603 4.559425,-2.026407 16,-1.871593 L 106,46 l 0.66667,7.333333 c 0.70909,7.800018 1.76352,7.734194 3.19349,-0.199356 0.48239,-2.676312 1.6112,-5.458748 2.50846,-6.183189 2.67614,-2.160697 21.78647,-1.840429 23.64274,0.396225 0.87079,1.049235 1.67445,5.97539 1.78595,10.94701 L 138,67.333333 107.85031,67.691229 C 81.02346,68.009681 77.496697,67.803416 75.850312,65.819636 Z m 9.177465,-8.736303 c -0.824098,-2.472297 -3.694444,-2.882346 -3.694444,-0.527777 0,1.161111 0.95,2.111111 2.111111,2.111111 1.161112,0 1.873612,-0.7125 1.583333,-1.583334 z M 142.32553,67 c -0.27417,-0.55 -0.45958,-5.5 -0.41202,-11 l 0.0865,-10 5.54868,-0.404232 c 4.26292,-0.310561 6.15391,0.245411 8.16056,2.399311 l 2.61191,2.803542 0.7146,-2.732644 c 0.78373,-2.997018 6.03945,-3.79078 8.54038,-1.289841 1.03486,1.034849 2.24256,0.943348 4.27128,-0.323607 4.60679,-2.876985 7.58631,-0.03837 7.03794,6.705112 -0.39663,4.87693 -0.12124,5.509026 2.40006,5.509026 2.565,0 2.80834,-0.629535 2.44799,-6.333334 L 183.33333,46 h 28 28 l 0.44011,3.855324 c 0.24433,2.140423 -0.32135,4.32592 -1.27172,4.913285 -1.39159,0.860048 -1.38696,1.664966 0.0248,4.30276 0.95511,1.784639 1.51807,4.37366 1.251,5.753382 -0.4324,2.233716 -1.79819,2.508582 -12.46489,2.508582 h -11.9793 L 214.92695,61 c -0.37076,-5.778005 -0.70191,-6.333333 -3.77668,-6.333333 -3.19404,0 -3.34711,0.331216 -2.92695,6.333333 0.40271,5.752749 0.1616,6.373273 -2.63004,6.769019 -1.69037,0.239626 -3.83464,-0.196098 -4.76507,-0.968276 -1.13136,-0.938944 -2.13469,-0.960931 -3.02924,-0.06637 -0.81232,0.812319 -9.41297,1.192556 -21.90161,0.968275 -20.18265,-0.362461 -20.57193,-0.424948 -20.99009,-3.369311 -0.56479,-3.976741 -2.66467,-3.81168 -4.2406,0.333334 C 149.78777,66.978329 148.39167,68 146.11169,68 c -1.80821,0 -3.51197,-0.45 -3.78616,-1 z m 57.16563,-11.953281 c -0.39021,-0.390219 -1.66811,-0.341634 -2.83975,0.107973 -1.91497,0.734848 -1.8871,1.142807 0.27584,4.036956 l 2.40608,3.219499 0.43366,-3.327467 c 0.23852,-1.830108 0.1144,-3.646737 -0.27583,-4.036956 z m 25.84217,3.619948 c 0,-2.2 -0.6,-4 -1.33333,-4 -0.73333,0 -1.33333,1.8 -1.33333,4 0,2.2 0.6,4 1.33333,4 0.73333,0 1.33333,-1.8 1.33333,-4 z m -55.11696,-7 C 169.84649,50.75 169.54385,51.5 169.54385,53.333333 c 0,1.833334 0.30264,2.583334 0.67252,1.666667 0.36988,-0.916667 0.36988,-2.416667 0,-3.333333 z M 13.929956,44.964929 C 13.554381,43.986197 13.416497,35.718697 13.623547,26.592708 L 14,10 H 32 50 V 28 46 L 32.306409,46.372221 C 18.518045,46.662288 14.462101,46.351675 13.929956,44.964929 Z"
       style="fill:black;stroke-width:1.33333337" />
    <path
       id="primaryColor"
       d="m 438.22223,751.11111 c -3.03178,-3.03176 1.5873,-8.44444 7.20634,-8.44444 3.18564,0 3.90476,0.56477 3.90476,3.06666 0,1.68667 -0.72,3.78667 -1.6,4.66667 -1.7112,1.7112 -8.038,2.18423 -9.5111,0.71111 z m 24,0 c -1.23978,-1.23976 -1.07556,-10.08602 0.22526,-12.13547 1.22666,-1.93259 8.96284,-4.4542 10.11882,-3.29823 1.28744,1.28744 0.85398,11.00208 -0.61322,13.74358 -1.34788,2.51853 -7.7845,3.63649 -9.73086,1.69012 z m 34.23182,-0.77778 c -0.57017,-0.91666 -0.85677,-5.60722 -0.6369,-10.42348 0.3634,-7.96066 -0.0453,-9.56644 -4.49518,-17.66201 -2.6922,-4.89787 -5.441,-9.24272 -6.10844,-9.65521 C 482.18095,710.71839 484.1676,708 488.56989,708 c 4.77191,0 7.02412,2.02777 11.70143,10.53535 1.24923,2.27222 2.81428,4.13132 3.47789,4.13132 0.66362,0 3.39766,-3.3 6.07563,-7.33334 C 514.179,708.77551 515.18597,708 519.34695,708 c 2.55918,0 4.65305,0.50744 4.65305,1.12765 0,0.62022 -3.52957,6.01524 -7.84349,11.98895 -7.13844,9.88497 -7.92994,11.67128 -8.80532,19.87235 -0.529,4.95608 -1.64944,9.45186 -2.48984,9.99064 -2.42034,1.55162 -7.2722,1.17868 -8.4073,-0.64626 z m 35.98156,-0.45465 c -0.44772,-1.16673 -0.0983,-9.95616 0.77643,-19.53209 1.11169,-12.16974 1.16865,-17.83256 0.18921,-18.812 C 530.43756,708.57089 532.44341,708 545.82019,708 c 11.76454,0 14.32045,0.39351 17.18349,2.64557 9.57683,7.53314 2.89057,24.0211 -9.74111,24.0211 -7.65718,0 -9.26257,1.0496 -9.26257,6.05585 0,7.76487 -2.07923,11.27748 -6.67551,11.27748 -2.49568,0 -4.39032,-0.82209 -4.88888,-2.12132 z m 23.2236,-24.8158 c 4.32952,-3.59319 0.34398,-9.54321 -5.91192,-8.82589 -2.99704,0.34365 -3.83393,1.18633 -4.18005,4.20897 -0.69803,6.09576 0.59389,7.97001 4.77105,6.92161 2.00574,-0.50341 4.40015,-1.54052 5.32092,-2.30469 z m 16.93374,25.48451 c -0.49378,-0.79895 -0.3794,-8.44895 0.25416,-17 1.30705,-17.64092 1.29513,-19.95532 -0.11947,-23.21406 C 571.79319,708.18076 573.02017,708 588.56589,708 c 13.81187,0 16.99076,0.36379 17.62515,2.01697 1.48425,3.86791 -2.10081,5.85232 -11.30589,6.25806 -8.21864,0.36226 -8.91888,0.63037 -9.33511,3.57418 -0.59524,4.20978 1.68099,5.4391 10.11665,5.46371 6.55796,0.0191 7,0.22931 7,3.32835 0,3.64788 -1.82901,4.41105 -12,5.0071 -5.90128,0.34584 -6,0.42842 -6,5.0183 v 4.66666 L 593.98777,744 c 7.7653,0.5554 9.40066,1.08509 9.79786,3.17356 0.26222,1.3788 -0.33226,3.01961 -1.32108,3.64625 -2.6885,1.70378 -28.79738,1.46567 -29.87158,-0.27242 z M 273.26477,736.33333 c -2.44672,-3.06316 -2.78508,-3.19821 -2.05576,-0.8205 0.81118,2.6445 0.3978,2.84614 -5.83465,2.84614 -4.82507,0 -6.70769,-0.51814 -6.70769,-1.84614 0,-2.42296 -4.14343,-2.36066 -7.41183,0.11146 -4.53699,3.43158 -5.92151,2.49022 -5.92151,-4.02614 v -6.06852 L 253,726.52163 c 4.21667,-0.005 9.69981,-0.0107 12.18476,-0.0133 2.48495,-0.003 5.09345,0.5705 5.79669,1.27374 0.81592,0.81592 2.67903,0.48368 5.14858,-0.9181 3.54857,-2.01426 4.18002,-2.02077 7.60337,-0.0784 3.14985,1.7872 4.14987,1.8418 6.39773,0.34927 1.95196,-1.29605 3.85123,-1.42864 7.10356,-0.49588 2.95234,0.84672 5.317,0.8034 7.0598,-0.12933 6.30936,-3.37667 11.93587,2.40344 7.07311,7.2662 -1.73209,1.73209 -1.72205,2.05925 0.0845,2.75249 3.16642,1.21507 0.85259,3.47225 -3.55938,3.47225 -2.8849,0 -4.34643,-0.8703 -5.42058,-3.22781 -1.57342,-3.45327 -3.88937,-3.34857 -8.2134,0.37129 -1.83221,1.57622 -2.96372,1.72438 -4.7326,0.6197 -1.73758,-1.08514 -2.96166,-0.98602 -4.84692,0.39252 -3.93222,2.87532 -8.20733,2.19278 -11.41445,-1.82236 z m 8.06856,-3.74536 c 0,-1.96345 -1.58854,-2.55498 -3.01924,-1.12428 -1.20192,1.20191 0.45307,4.63158 1.82562,3.7833 0.65649,-0.40574 1.19362,-1.6023 1.19362,-2.65902 z m 43.3215,6.05954 c -0.50672,-0.8199 -2.74571,-1.04276 -5.42547,-0.54003 l -4.56269,0.85596 v -5.43481 c 0,-3.84444 0.68278,-5.77484 2.33333,-6.59683 1.28333,-0.63911 8.63333,-0.90925 16.33333,-0.60032 7.7,0.30893 15.95,0.51109 18.33334,0.44924 4.79364,-0.1244 5.18741,0.64463 2.29093,4.47412 -1.07668,1.42349 -1.9576,3.67349 -1.9576,5 0,4.16072 -3.87407,2.62757 -5.95695,-2.35745 -2.47689,-5.92804 -6.06718,-5.72284 -7.66361,0.43798 -1.28327,4.95227 -5.03517,5.93814 -5.06652,1.3313 -0.0107,-1.65 -0.62264,-3.9 -1.35868,-5 -1.15797,-1.73059 -1.60509,-1.6502 -3.31916,0.59672 -1.08951,1.4282 -1.65369,3.6277 -1.25376,4.8878 0.82341,2.59434 -1.40496,4.6346 -2.72649,2.49632 z m 40.01977,-1.78162 c -4.17791,-6.37628 1.487,-13.40574 8.30131,-10.30093 2.48508,1.13228 4.4066,1.10773 7.74356,-0.0989 5.84804,-2.11468 9.4045,0.23197 7.04193,4.64646 -2.44264,4.56411 -5.33624,6.86808 -9.00124,7.16703 -1.88476,0.15375 -5.32351,0.66401 -7.64167,1.13395 -3.54589,0.71881 -4.5686,0.31449 -6.44389,-2.54758 z M 372,732.58797 c 0,-1.05672 -0.9,-1.9213 -2,-1.9213 -2.00831,0 -2.74091,2.81465 -1.14736,4.4082 1.24432,1.24432 3.14736,-0.25936 3.14736,-2.4869 z m 19.33333,4.74536 C 391.78656,736.6 392.72197,736 393.41203,736 c 0.69005,0 1.25464,0.6 1.25464,1.33333 0,0.73334 -0.93542,1.33334 -2.0787,1.33334 -1.14328,0 -1.70786,-0.6 -1.25464,-1.33334 z M 390.66667,732 c 0,-0.73333 0.9,-1.33333 2,-1.33333 1.1,0 2,0.6 2,1.33333 0,0.73333 -0.9,1.33333 -2,1.33333 -1.1,0 -2,-0.6 -2,-1.33333 z m 49.31513,-11.66667 c -0.0107,-3.48333 -0.38944,-7.71945 -0.84317,-9.4136 -0.78924,-2.9469 -0.54314,-3.06236 5.68488,-2.66666 7.38508,0.46921 8.14968,1.94305 6.54821,12.62234 -0.8556,5.70556 -0.94615,5.79126 -6.12008,5.79126 H 440 l -0.0181,-6.33334 z m 24,0.0805 c -0.0107,-3.52762 -0.38,-7.76383 -0.82219,-9.41383 -0.7484,-2.79268 -0.38033,-3 5.32615,-3 5.35124,0 6.23171,0.40481 6.92976,3.18608 0.43981,1.75235 0.28553,5.80235 -0.34283,9 -1.08213,5.50676 -1.4048,5.83579 -6.10758,6.22775 L 464,726.82764 l -0.0181,-6.41381 z m 85.87563,-147.32502 c -18.68517,-3.34096 -26.78178,-9.25804 -36.13102,-16.26759 -7.61937,-5.71258 -3.36066,-9.75446 12.60692,-9.0983 7.88334,0.32396 18.83334,-0.0931 24.33334,-0.92672 11.39618,-1.72737 25.22488,-7.87603 29.26486,-13.01204 l 2.69958,-3.43195 -6.05499,-6.7346 c -3.33024,-3.70402 -8.50917,-10.23329 -11.50875,-14.50946 -2.99956,-4.27616 -5.91329,-7.77486 -6.47494,-7.77486 -0.56167,0 -2.33878,2.72171 -3.94912,6.04824 -4.72478,9.76008 -14.75007,19.7038 -24.09244,23.89642 -7.53427,3.38117 -17.07048,9.28834 -28.20941,8.72478 -12.3805,-0.62637 -15.15253,-3.77518 -28.91852,-12.06918 -2.56666,-1.54643 -2.47707,-7.99731 -4.58027,-8.49387 -6.89299,-1.62741 -7.44745,-1.56212 0,0 6.82542,1.43166 12.19897,0.77748 17.18328,-2.37496 2.91906,-1.84623 7.89281,-6.16611 11.05277,-9.59971 C 502.918,501.12008 512,484.13693 512,479.56255 c 0,-1.38198 -3.79776,-7.3989 -8.43947,-13.37095 -4.64172,-5.97204 -11.89796,-15.81725 -16.125,-21.87825 -8.30945,-11.91462 -10.42666,-13.64668 -16.68121,-13.64668 -2.24821,0 -7.54398,-0.8241 -7.54398,-1.54973 0,-0.72561 0.87206,-8.2279 3.0239,-15.89131 5.56656,-19.82428 10.45042,-42.71961 12.06079,-69.66012 2.28204,-38.17712 2.33763,-44.47539 17.66435,-42.86685 15.35234,1.61124 33.9789,5.08992 47.40447,9.61277 28.39094,9.56443 40.97415,16.9824 38.64226,27.81826 -1.59956,7.43286 -11.16251,38.227 -18.09268,70.706 L 560.25101,426 l 8.02622,23.32023 c 4.61528,13.40972 9.46509,27.52767 11.4172,31.52667 5.18312,10.6179 26.45084,21.64466 39.39291,27.79343 17.04486,8.098 19.80471,16.57203 19.80471,29.63126 0,7.9108 -8.07822,17.82932 -19.84394,23.59889 -19.06808,9.35043 -44.88569,14.19745 -63.97683,10.78389 z M 283.56551,546.02036 c 0,-0.52357 1.07133,-6.05228 1.84968,-7.50664 2.19337,-4.09836 -0.80764,-11.11921 -7.0291,-16.44455 -10.18264,-8.71596 -27.98474,-14.46096 -51.04414,-16.47269 l -14.56843,-3.31949 13.75919,-9.34123 c 25.97127,-19.47731 32.57741,-25.82934 61.61868,-69.34344 35.03385,-52.49311 34.9794,-53.29483 30.85592,-101.34521 -1.19571,-13.93333 -2.52119,-31.68506 -2.94553,-38.65173 -0.76292,-12.52548 0.79047,-13.57675 4.45383,-17.22431 6.74856,-6.71943 17.002,-8.04335 52.36284,-7.59653 34.2872,0.43325 38.69032,1.80115 43.82949,8.74868 2.40968,3.25758 1.80971,7.62234 0.16359,17.4759 -2.31808,13.87582 -1.46124,61.92317 0.84987,76.10204 0.95626,5.86666 3.68388,14.2148 3.67248,20.2562 l -0.0214,11.32751 -6.07154,15.10489 -6.07154,15.10491 1.61173,16.62249 c 1.54501,15.93444 3.02318,21.07663 0.49294,23.60688 -1.45174,1.45172 -5.94058,3.8679 -8.64764,4.3072 -4.86348,0.78924 -5.34706,-4.46177 -4.57057,-8.34421 1.66004,-8.30022 -5.57641,-23.26934 -10.36134,-21.43318 -1.09943,0.4219 -7.5602,9.03215 -14.35727,19.13391 l -12.35831,18.36684 2.81383,5.79171 c 1.5476,3.18542 6.07248,11.35312 6.07248,13.10553 0,3.81518 -16.38815,29.58937 -21.45772,34.90402 -4.92115,5.15905 -19.22777,9.53934 -32.04805,12.80282 -11.17498,2.84466 -32.854,5.89635 -32.854,4.26168 z M 386.88899,276.07884 c 9.28894,-0.63548 17.98894,-1.77099 19.33333,-2.52337 2.24153,-1.25446 2.15083,-1.47955 -1.09324,-2.71296 -12.53125,-4.76447 -48.9626,-6.04359 -66.37537,-2.33046 -9.53556,2.03338 -13.46254,3.89023 -11.7818,5.57098 0.80822,0.80821 24.24849,2.74718 36.36142,3.0078 3.66667,0.0789 14.26671,-0.37651 23.55566,-1.01199 z M 596,60.666667 V 52 h 6.71357 c 6.4564,0 6.65482,0.109813 5.1795,2.866475 -0.89791,1.677749 -1.2044,5.271808 -0.73908,8.666666 l 0.795,5.800192 H 601.97449 596 Z m 8,3.254644 c 0,-0.690055 -0.9,-1.254644 -2,-1.254644 -2.06188,0 -2.64893,1.573284 -1.14736,3.074862 C 601.91788,66.806771 604,65.602615 604,63.921311 Z m -1.19493,-8.316246 c -1.71132,-1.711314 -3.44674,-0.38867 -2.17979,1.66131 0.49077,0.794084 1.50313,1.066282 2.24969,0.604884 0.91067,-0.562826 0.88767,-1.30862 -0.0699,-2.266194 z m 11.81434,9.4927 c -0.026,-2.437104 -0.90472,-5.931098 -1.95274,-7.764432 C 611.61864,55.5 610.73989,53.55 610.71392,53 c -0.026,-0.55 8.65275,-1 19.28608,-1 16.40407,0 19.33333,0.306876 19.33333,2.025403 0,1.494637 -0.87352,1.806165 -3.33333,1.188789 -3.53043,-0.88608 -4.35811,0.561028 -1.78984,3.129299 1.16909,1.1691 1.14125,2.028154 -0.1148,3.541593 -2.18059,2.627443 -0.78223,4.711548 2.57263,3.834235 1.85318,-0.484622 2.66533,-0.0402 2.66533,1.458506 1e-5,1.625871 -1.31045,2.155508 -5.33332,2.155508 h -5.33333 v -5.86828 -5.86828 l -3.74851,3.534947 c -2.06168,1.944221 -4.14284,4.584947 -4.62481,5.86828 -0.48198,1.283333 -1.82234,2.333333 -2.97859,2.333333 -1.67969,0 -1.92661,-0.936254 -1.22844,-4.657902 0.98004,-5.224062 -0.14057,-11.342098 -2.07748,-11.342098 -2.09905,0 -5.53884,7.92837 -5.09189,11.736318 0.2964,2.525242 -0.25602,3.678896 -1.91695,4.003374 -1.83876,0.35922 -2.34335,-0.483368 -2.38059,-3.97526 z m 18.71392,-7.764432 c 0,-1.466666 -0.56458,-2.666666 -1.25464,-2.666666 -1.7898,0 -3.05096,2.426834 -2.07869,4 1.39349,2.254716 3.33333,1.47878 3.33333,-1.333334 z m 23.26894,10.824494 c -1.55294,-1.552936 -0.31844,-2.950948 2.2738,-2.574971 4.17174,0.605071 4.45178,-2.186895 0.40432,-4.031043 -2.69764,-1.229122 -3.36307,-2.37593 -3.03454,-5.229752 l 0.42082,-3.655394 h 29.22176 c 23.39904,0 29.34184,0.35998 29.82441,1.806585 0.42996,1.288869 -0.17457,1.559899 -2.10955,0.945763 -3.92438,-1.245552 -5.04149,1.686985 -1.19912,3.147853 3.58151,1.361687 5.1915,5.295861 3.44463,8.417336 -0.96579,1.725767 -5.44068,2.010633 -29.89005,1.90276 -15.81482,-0.06978 -29.02523,-0.397888 -29.35648,-0.729137 z m 18.0644,-8.347627 c 0,-3.695593 -0.51878,-5.195411 -1.66667,-4.818485 -1.84532,0.60593 -2.95775,6.791229 -1.77552,9.872092 1.35117,3.521077 3.44219,0.45117 3.44219,-5.053607 z m 18.17633,3.29526 c 1.42411,-5.674085 0.11184,-7.772127 -4.86127,-7.772127 -4.11389,0 -4.69816,0.434572 -5.08116,3.779298 C 682.2606,64.701383 683.20108,66 687.88851,66 c 3.22697,0 4.40001,-0.685319 4.95449,-2.89454 z m 20.16129,1.214999 c 0.26171,-0.785126 -0.79156,-1.829759 -2.34061,-2.321406 -1.54904,-0.491646 -3.36721,-2.342562 -4.04039,-4.113145 -1.50057,-3.946797 -3.38588,-4.110387 -5.33781,-0.463164 -2.30281,4.30284 1.16219,8.615072 6.79236,8.453185 2.44784,-0.07039 4.66475,-0.770345 4.92645,-1.55547 z m -46.33762,-6.164951 c 0,-2.250351 -5.47043,-3.88508 -7.20303,-2.152483 -0.77647,0.776468 -0.0285,1.73687 1.977,2.538482 4.47232,1.787616 5.22603,1.731946 5.22603,-0.385999 z m -589.835358,6.23136 c -1.526129,-1.526131 -0.854772,-13.374691 0.835355,-14.742885 0.916666,-0.742062 7.339424,-1.265528 14.272793,-1.16326 l 12.60613,0.185944 -0.37165,7 c -0.38875,7.32211 0.42922,8.198178 5.24705,5.619754 C 111.18107,60.344453 112,58.49108 112,55.449681 c 0,-2.451072 0.75,-5.053785 1.66667,-5.783806 2.44219,-1.944928 19.14793,-1.903148 20.74336,0.05188 0.72513,0.888569 1.26546,4.730406 1.20073,8.537417 l -0.11773,6.921837 -28.91523,0.02059 c -15.903324,0.01132 -29.289267,-0.35351 -29.746488,-0.810731 z m 8.730367,-3.926852 c 3.21216,-2.906964 3.079188,-5.193259 -0.445636,-7.662141 C 81.222116,50.070463 80,51.172687 80,57.412023 c 0,5.718534 1.626065,6.609676 5.561679,3.047993 z M 94.409997,57 c -0.44535,-6.155296 -2.810173,-7.230412 -3.509429,-1.595489 -0.524856,4.229538 0.505585,7.262156 2.467583,7.262156 0.883476,0 1.291337,-2.218388 1.041846,-5.666667 z m 24.923333,-0.111111 c 0,-6.938954 -2.58238,-6.729546 -3.08345,0.250039 -0.31082,4.329584 0.0282,5.657279 1.33333,5.222223 1.02034,-0.340111 1.75012,-2.622006 1.75012,-5.472262 z M 99.585768,55 c -0.335371,-1.283333 -0.609764,-0.233333 -0.609764,2.333333 0,2.566667 0.274393,3.616667 0.609764,2.333334 0.335369,-1.283334 0.335369,-3.383334 0,-4.666667 z M 132,54.078689 c 0,-1.056721 -0.55854,-2.266508 -1.2412,-2.688416 -1.58519,-0.979698 -3.17947,1.51704 -2.09213,3.276394 C 129.89274,56.650495 132,56.278789 132,54.078689 Z m 12,2.507491 v -8.747155 l 5,0.413822 c 4.54271,0.375972 5.03765,0.802633 5.41169,4.665074 0.32384,3.344135 -0.31629,4.728244 -3,6.48668 C 149.53527,60.634085 148,62.47102 148,63.48668 c 0,1.015659 -0.9,1.846653 -2,1.846653 -1.57453,0 -2,-1.860794 -2,-8.747153 z m 7.74617,-2.919513 c -0.54124,-2.810458 -2.90757,-2.633246 -3.5106,0.262905 C 147.98404,55.137551 148.71903,56 150,56 c 1.37328,0 2.02724,-0.873863 1.74617,-2.333333 z m 6.29722,8 C 158.59291,59.65 159.41813,55.9 159.87721,53.333333 c 0.61392,-3.432397 1.51507,-4.666666 3.40716,-4.666666 2.0095,0 2.88199,1.45897 3.9868,6.666666 C 168.20281,59.724781 169.36485,62 170.67608,62 c 1.49981,0 1.99059,-1.643651 1.99059,-6.666667 0,-4.969502 0.4978,-6.666666 1.95542,-6.666666 1.49256,0 1.86522,1.467042 1.57432,6.197565 -0.4291,6.977756 0.2702,7.853209 5.47786,6.857704 3.39742,-0.649459 3.65906,-1.167084 3.65906,-7.238892 v -6.539417 l 26.22324,0.36152 c 20.97532,0.28917 26.34676,0.73272 26.84051,2.216361 0.45965,1.381249 -0.22148,1.644331 -2.66769,1.030371 -3.12126,-0.783386 -3.28495,-0.529748 -3.28495,5.090065 0,4.623981 0.46065,5.853823 2.11112,5.636296 1.16111,-0.153032 2.26111,0.32176 2.44444,1.055093 0.18333,0.733334 -1.87092,1.333334 -4.56501,1.333334 h -4.89836 l -0.1016,-6 c -0.093,-5.484004 -0.38836,-6 -3.43503,-6 -3.12415,0 -3.31937,0.40226 -3.11091,6.409738 0.18398,5.301694 -0.15709,6.336654 -1.97292,5.986958 -1.69461,-0.326354 -2.10513,-1.671939 -1.79989,-5.89953 0.43017,-5.957878 -0.44475,-6.769218 -7.11628,-6.59914 -3.90769,0.09961 -3.99487,0.249882 -3.77757,6.511712 0.18397,5.301694 -0.1571,6.336654 -1.97292,5.986958 -1.70772,-0.328879 -2.10467,-1.678515 -1.78714,-6.076407 0.38703,-5.360247 -0.33252,-6.387177 -4.08278,-5.826935 -0.52456,0.07836 -2.45332,-0.427657 -4.28614,-1.12449 -3.85602,-1.46606 -5.84408,0.385142 -3.47682,3.237505 1.03998,1.253113 1.07586,2.092968 0.1148,2.686949 -0.76896,0.475234 -1.3981,1.793695 -1.3981,2.929915 0,1.537787 0.85206,1.852001 3.33334,1.229241 2.45981,-0.617376 3.33333,-0.305848 3.33333,1.18879 0,1.693376 -2.4954,2.025402 -15.22223,2.025402 -10.96296,0 -15.39321,-0.466342 -15.83333,-1.666666 -0.48888,-1.333334 -0.96444,-1.333334 -2.37777,0 -3.2667,3.081781 -5.62402,2.039476 -4.52328,-2 z M 16,28 V 12 H 32 48 V 28 44 H 32 16 Z"
       style="fill:black;stroke-width:1.33333337" />
    <text id="brimText" x="365" y="300" dominant-baseline="middle" text-anchor="middle" transform="rotate(0 0 0)" fill="black" font-size="22"></text>
    <text id="toeText" x="475" y="345" dominant-baseline="middle" text-anchor="middle" transform="rotate(25 0 0)" fill="black" font-size="22"></text>
  </g>
</svg>
